<svg width="19" height="23" viewBox="0 0 19 23" fill="none" xmlns="http://www.w3.org/2000/svg">
<path d="M13.8095 7.50857C13.3419 7.47199 12.8397 7.5837 12.0706 7.87731C12.1358 7.8526 11.3371 8.164 11.1136 8.24309C10.6174 8.41609 10.2091 8.511 9.75135 8.511C9.29858 8.511 8.88139 8.42005 8.40094 8.25891C8.24771 8.20651 8.09348 8.15016 7.9017 8.07503C7.82063 8.04339 7.52406 7.92476 7.45881 7.90005C6.8182 7.64895 6.45736 7.55404 6.15782 7.56195C5.01896 7.57678 3.9404 8.23419 3.31463 9.32362C2.03736 11.542 2.74421 15.5508 4.61166 18.2516C5.60618 19.6791 6.14991 20.1892 6.36938 20.1823C6.58885 20.1724 6.74999 20.126 7.14345 19.9599L7.30854 19.8897C8.30208 19.4656 8.99903 19.2788 10.0479 19.2788C11.0573 19.2788 11.7315 19.4626 12.6855 19.8739L12.8516 19.9451C13.245 20.1131 13.3874 20.1507 13.6345 20.1448C13.9885 20.1398 14.4244 19.7325 15.3923 18.3119C15.6572 17.9254 15.8915 17.5181 16.0942 17.1058C15.961 16.9961 15.8317 16.8817 15.7066 16.7628C14.4323 15.5488 13.6444 13.9117 13.6227 11.889C13.6014 10.3925 14.0933 8.93374 15.0166 7.75571C14.6291 7.61266 14.2221 7.52932 13.8095 7.50857ZM13.9628 5.53731C14.6627 5.58476 16.6676 5.7983 17.9725 7.70826C17.8657 7.76758 15.5761 9.09624 15.5999 11.8722C15.6355 15.1939 18.5063 16.2972 18.5419 16.309C18.5182 16.3921 18.0793 17.8868 17.0234 19.429C16.11 20.7696 15.1609 22.0982 13.6662 22.1219C12.1952 22.1575 11.7206 21.2559 10.0479 21.2559C8.36337 21.2559 7.84139 22.0982 6.45341 22.1575C5.00611 22.205 3.9147 20.7102 2.98938 19.3816C1.10314 16.6531 -0.332294 11.6943 1.60139 8.33701C2.56231 6.66431 4.2706 5.60849 6.1331 5.58476C7.54482 5.54917 8.88535 6.53381 9.75135 6.53381C10.6055 6.53381 12.1358 5.39495 13.9628 5.53731ZM12.8358 3.73412C12.0647 4.65944 10.8072 5.38309 9.58527 5.28819C9.41919 4.03069 10.0361 2.71389 10.7479 1.89533C11.5427 0.97001 12.8714 0.28195 13.9746 0.234497C14.117 1.51571 13.6069 2.80879 12.8358 3.73412Z" fill="#191C1F"/>
</svg>
