<svg width="13" height="13" viewBox="0 0 13 13" fill="none" xmlns="http://www.w3.org/2000/svg">
<mask id="path-1-outside-1_1_794" maskUnits="userSpaceOnUse" x="0" y="0.139648" width="13" height="13" fill="black">
<rect fill="white" y="0.139648" width="13" height="13"/>
<path d="M11.6478 9.18365C11.8922 9.43572 12.0144 9.72979 12.0144 10.0659C12.022 10.402 11.9227 10.6807 11.7165 10.9023L11.1666 11.3949C11.0596 11.4942 10.9412 11.5821 10.8114 11.6584C10.6815 11.7348 10.5479 11.8074 10.4104 11.8761C10.1278 12.0136 9.84897 12.0824 9.57399 12.0824H9.29901C8.92474 12.1358 8.19911 11.9869 7.12212 11.6355C6.05277 11.2765 4.79628 10.4134 3.35265 9.04617C2.16109 7.88515 1.32852 6.8158 0.85495 5.83811C0.38138 4.86042 0.201882 3.8789 0.316455 2.89357C0.354646 2.78664 0.389018 2.66824 0.419571 2.53839L0.522687 2.13739C0.560879 1.99226 0.614346 1.85477 0.68309 1.72492C0.751834 1.59507 0.835855 1.47668 0.935152 1.36975V1.301L1.42782 0.819793C1.67988 0.57537 1.97777 0.453158 2.32149 0.453158C2.66521 0.453158 2.9631 0.57537 3.21516 0.819793L4.87648 2.48111C5.1209 2.73317 5.24311 3.03106 5.24311 3.37478C5.24311 3.7185 5.1209 4.02021 4.87648 4.27991L4.25778 4.89861C4.39527 5.14303 4.57477 5.42946 4.79628 5.75791C5.01779 6.07871 5.3004 6.4148 5.64412 6.76615C5.98784 7.10987 6.3201 7.39249 6.64091 7.614C6.96935 7.83551 7.25579 8.01119 7.50021 8.14104L8.13036 7.52234C8.22966 7.42304 8.35951 7.3543 8.51991 7.31611C8.68032 7.27028 8.84836 7.24736 9.02404 7.24736C9.19972 7.24736 9.36394 7.27028 9.5167 7.31611C9.67711 7.3543 9.81077 7.42304 9.91771 7.52234L10.7885 8.34727C11.2926 8.83611 11.579 9.11491 11.6478 9.18365ZM9.23027 11.4637C9.26846 11.4637 9.29901 11.4598 9.32193 11.4522C9.35248 11.4446 9.36776 11.4255 9.36776 11.3949C9.47469 11.3949 9.57781 11.3796 9.67711 11.3491C9.78404 11.3185 9.88716 11.288 9.98645 11.2574C10.0934 11.2192 10.1965 11.1696 10.2958 11.1085C10.4027 11.0474 10.5097 10.9786 10.6166 10.9023L11.0291 10.4898C11.1284 10.3829 11.178 10.2568 11.178 10.1117C11.178 9.96657 11.1284 9.84054 11.0291 9.73361L9.36776 8.07229C9.29901 8.04174 9.23027 8.02264 9.16152 8.015C9.09278 8.00737 9.02404 8.00355 8.95529 8.00355C8.87891 8.00355 8.79871 8.00737 8.71469 8.015C8.63831 8.02264 8.58102 8.04174 8.54283 8.07229L7.50021 9.04617L7.15649 8.83993C6.88151 8.70245 6.56071 8.51531 6.19407 8.27852C5.82744 8.04174 5.43407 7.72093 5.01397 7.31611C4.63969 6.896 4.32653 6.50645 4.07446 6.14746C3.8224 5.78082 3.63145 5.4562 3.5016 5.17358L3.28391 4.82986L4.32653 3.78724C4.42582 3.64976 4.47547 3.50463 4.47547 3.35187C4.47547 3.1991 4.42582 3.06925 4.32653 2.96232L2.66521 1.301C2.59647 1.27045 2.52772 1.2399 2.45898 1.20934C2.39023 1.17879 2.32149 1.16351 2.25275 1.16351C2.184 1.16351 2.11526 1.17115 2.04651 1.18643C1.97777 1.2017 1.90903 1.2399 1.84028 1.301L1.42782 1.79367C1.35144 1.89296 1.28269 1.99608 1.22159 2.10302C1.16048 2.20231 1.11083 2.30543 1.07264 2.41236C1.04209 2.51166 1.01153 2.61478 0.980981 2.72171C0.958067 2.82865 0.94279 2.93176 0.935152 3.03106C0.828217 3.8789 1.00008 4.74966 1.45073 5.64333C1.90139 6.53701 2.67667 7.5338 3.77657 8.6337C5.14382 9.89401 6.31247 10.6922 7.28252 11.0283C8.25258 11.3644 8.90182 11.5095 9.23027 11.4637Z"/>
</mask>
<path d="M11.6478 9.18365C11.8922 9.43572 12.0144 9.72979 12.0144 10.0659C12.022 10.402 11.9227 10.6807 11.7165 10.9023L11.1666 11.3949C11.0596 11.4942 10.9412 11.5821 10.8114 11.6584C10.6815 11.7348 10.5479 11.8074 10.4104 11.8761C10.1278 12.0136 9.84897 12.0824 9.57399 12.0824H9.29901C8.92474 12.1358 8.19911 11.9869 7.12212 11.6355C6.05277 11.2765 4.79628 10.4134 3.35265 9.04617C2.16109 7.88515 1.32852 6.8158 0.85495 5.83811C0.38138 4.86042 0.201882 3.8789 0.316455 2.89357C0.354646 2.78664 0.389018 2.66824 0.419571 2.53839L0.522687 2.13739C0.560879 1.99226 0.614346 1.85477 0.68309 1.72492C0.751834 1.59507 0.835855 1.47668 0.935152 1.36975V1.301L1.42782 0.819793C1.67988 0.57537 1.97777 0.453158 2.32149 0.453158C2.66521 0.453158 2.9631 0.57537 3.21516 0.819793L4.87648 2.48111C5.1209 2.73317 5.24311 3.03106 5.24311 3.37478C5.24311 3.7185 5.1209 4.02021 4.87648 4.27991L4.25778 4.89861C4.39527 5.14303 4.57477 5.42946 4.79628 5.75791C5.01779 6.07871 5.3004 6.4148 5.64412 6.76615C5.98784 7.10987 6.3201 7.39249 6.64091 7.614C6.96935 7.83551 7.25579 8.01119 7.50021 8.14104L8.13036 7.52234C8.22966 7.42304 8.35951 7.3543 8.51991 7.31611C8.68032 7.27028 8.84836 7.24736 9.02404 7.24736C9.19972 7.24736 9.36394 7.27028 9.5167 7.31611C9.67711 7.3543 9.81077 7.42304 9.91771 7.52234L10.7885 8.34727C11.2926 8.83611 11.579 9.11491 11.6478 9.18365ZM9.23027 11.4637C9.26846 11.4637 9.29901 11.4598 9.32193 11.4522C9.35248 11.4446 9.36776 11.4255 9.36776 11.3949C9.47469 11.3949 9.57781 11.3796 9.67711 11.3491C9.78404 11.3185 9.88716 11.288 9.98645 11.2574C10.0934 11.2192 10.1965 11.1696 10.2958 11.1085C10.4027 11.0474 10.5097 10.9786 10.6166 10.9023L11.0291 10.4898C11.1284 10.3829 11.178 10.2568 11.178 10.1117C11.178 9.96657 11.1284 9.84054 11.0291 9.73361L9.36776 8.07229C9.29901 8.04174 9.23027 8.02264 9.16152 8.015C9.09278 8.00737 9.02404 8.00355 8.95529 8.00355C8.87891 8.00355 8.79871 8.00737 8.71469 8.015C8.63831 8.02264 8.58102 8.04174 8.54283 8.07229L7.50021 9.04617L7.15649 8.83993C6.88151 8.70245 6.56071 8.51531 6.19407 8.27852C5.82744 8.04174 5.43407 7.72093 5.01397 7.31611C4.63969 6.896 4.32653 6.50645 4.07446 6.14746C3.8224 5.78082 3.63145 5.4562 3.5016 5.17358L3.28391 4.82986L4.32653 3.78724C4.42582 3.64976 4.47547 3.50463 4.47547 3.35187C4.47547 3.1991 4.42582 3.06925 4.32653 2.96232L2.66521 1.301C2.59647 1.27045 2.52772 1.2399 2.45898 1.20934C2.39023 1.17879 2.32149 1.16351 2.25275 1.16351C2.184 1.16351 2.11526 1.17115 2.04651 1.18643C1.97777 1.2017 1.90903 1.2399 1.84028 1.301L1.42782 1.79367C1.35144 1.89296 1.28269 1.99608 1.22159 2.10302C1.16048 2.20231 1.11083 2.30543 1.07264 2.41236C1.04209 2.51166 1.01153 2.61478 0.980981 2.72171C0.958067 2.82865 0.94279 2.93176 0.935152 3.03106C0.828217 3.8789 1.00008 4.74966 1.45073 5.64333C1.90139 6.53701 2.67667 7.5338 3.77657 8.6337C5.14382 9.89401 6.31247 10.6922 7.28252 11.0283C8.25258 11.3644 8.90182 11.5095 9.23027 11.4637Z" fill="#1D234E"/>
<path d="M11.6478 9.18365L11.7565 9.07817L11.7549 9.07652L11.6478 9.18365ZM12.0144 10.0659H11.8629L11.8629 10.0693L12.0144 10.0659ZM11.7165 10.9023L11.818 11.0156L11.8274 11.0055L11.7165 10.9023ZM11.1666 11.3949L11.0655 11.2821L11.0635 11.2839L11.1666 11.3949ZM10.4104 11.8761L10.4767 12.0124L10.4781 12.0116L10.4104 11.8761ZM9.29901 12.0824V11.9309H9.28825L9.27759 11.9324L9.29901 12.0824ZM7.12212 11.6355L7.0739 11.7792L7.07513 11.7796L7.12212 11.6355ZM3.35265 9.04617L3.24691 9.15469L3.24847 9.15617L3.35265 9.04617ZM0.316455 2.89357L0.173775 2.84261L0.167959 2.8589L0.165962 2.87607L0.316455 2.89357ZM0.419571 2.53839L0.272807 2.50065L0.272092 2.50369L0.419571 2.53839ZM0.522687 2.13739L0.376166 2.09883L0.375954 2.09966L0.522687 2.13739ZM0.935152 1.36975L1.04618 1.47284L1.08666 1.42924V1.36975H0.935152ZM0.935152 1.301L0.829288 1.19262L0.783645 1.2372V1.301H0.935152ZM1.42782 0.819793L1.32235 0.711025L1.32195 0.711408L1.42782 0.819793ZM3.21516 0.819793L3.32231 0.712648L3.32063 0.711026L3.21516 0.819793ZM4.87648 2.48111L4.98526 2.37562L4.98361 2.37398L4.87648 2.48111ZM4.87648 4.27991L4.98366 4.38709L4.98681 4.38375L4.87648 4.27991ZM4.25778 4.89861L4.15065 4.79148L4.06939 4.87273L4.12573 4.97289L4.25778 4.89861ZM4.79628 5.75791L4.67066 5.84263L4.6716 5.84399L4.79628 5.75791ZM5.64412 6.76615L5.53581 6.87211L5.53699 6.87329L5.64412 6.76615ZM6.64091 7.614L6.55482 7.73868L6.55619 7.73961L6.64091 7.614ZM7.50021 8.14104L7.42913 8.27483L7.52715 8.32691L7.60635 8.24915L7.50021 8.14104ZM8.13036 7.52234L8.23651 7.63045L8.2375 7.62947L8.13036 7.52234ZM8.51991 7.31611L8.55504 7.46364L8.56154 7.46178L8.51991 7.31611ZM9.5167 7.31611L9.47309 7.46147L9.48161 7.46349L9.5167 7.31611ZM9.91771 7.52234L10.0219 7.41235L10.0208 7.41132L9.91771 7.52234ZM10.7885 8.34727L10.8939 8.23849L10.8927 8.23728L10.7885 8.34727ZM9.23027 11.4637V11.3122H9.21975L9.20933 11.3136L9.23027 11.4637ZM9.32193 11.4522L9.28507 11.3048L9.27402 11.3085L9.32193 11.4522ZM9.36776 11.3949V11.2434H9.21625V11.3949H9.36776ZM9.6771 11.3491L9.63547 11.2034L9.63255 11.2043L9.6771 11.3491ZM9.98645 11.2574L10.0311 11.4024L10.0374 11.4001L9.98645 11.2574ZM10.2958 11.1085L10.2206 10.9769L10.2164 10.9795L10.2958 11.1085ZM10.6166 10.9023L10.7047 11.0255L10.7149 11.0183L10.7237 11.0094L10.6166 10.9023ZM11.0291 10.4898L11.1363 10.597L11.1401 10.5929L11.0291 10.4898ZM11.0291 9.73361L11.1402 9.63044L11.1362 9.62647L11.0291 9.73361ZM9.36776 8.07229L9.47489 7.96516L9.455 7.94527L9.42929 7.93384L9.36776 8.07229ZM8.71469 8.015L8.70097 7.86411L8.69961 7.86425L8.71469 8.015ZM8.54283 8.07229L8.4479 7.95364L8.43941 7.96157L8.54283 8.07229ZM7.50021 9.04617L7.42226 9.17608L7.52018 9.23483L7.60363 9.15689L7.50021 9.04617ZM7.15649 8.83993L7.23467 8.70963L7.22425 8.70442L7.15649 8.83993ZM5.01397 7.31611L4.90051 7.41718L4.90884 7.4252L5.01397 7.31611ZM4.07446 6.14746L3.94961 6.23329L3.95047 6.23452L4.07446 6.14746ZM3.5016 5.17358L3.63927 5.11033L3.63503 5.1011L3.62959 5.09252L3.5016 5.17358ZM3.28391 4.82986L3.17678 4.72273L3.09103 4.80848L3.15591 4.91093L3.28391 4.82986ZM4.32653 3.78725L4.43366 3.89438L4.44224 3.88579L4.44935 3.87595L4.32653 3.78725ZM4.32653 2.96232L4.43763 2.85915L4.43366 2.85518L4.32653 2.96232ZM2.66521 1.301L2.77234 1.19387L2.75245 1.17398L2.72674 1.16255L2.66521 1.301ZM1.84028 1.301L1.73963 1.18776L1.73128 1.19518L1.72411 1.20374L1.84028 1.301ZM1.42782 1.79367L1.31155 1.69633L1.30773 1.70129L1.42782 1.79367ZM1.22159 2.10302L1.35069 2.18246L1.35313 2.17818L1.22159 2.10302ZM1.07264 2.41236L0.929818 2.36136L0.927833 2.36781L1.07264 2.41236ZM0.980981 2.72171L0.834974 2.68L0.832837 2.68997L0.980981 2.72171ZM0.935152 3.03106L1.08565 3.05004L1.08621 3.04268L0.935152 3.03106ZM3.77657 8.6337L3.66935 8.74092L3.67389 8.7451L3.77657 8.6337ZM11.539 9.28912C11.7574 9.51432 11.8629 9.77107 11.8629 10.0659H12.1659C12.1659 9.6885 12.027 9.35711 11.7565 9.07818L11.539 9.28912ZM11.8629 10.0693C11.8698 10.3707 11.7819 10.6097 11.6056 10.799L11.8274 11.0055C12.0636 10.7518 12.1743 10.4332 12.1659 10.0624L11.8629 10.0693ZM11.6154 10.7894L11.0655 11.2821L11.2677 11.5078L11.8176 11.0151L11.6154 10.7894ZM11.0635 11.2839C10.9648 11.3755 10.8553 11.4568 10.7346 11.5279L10.8882 11.789C11.0272 11.7073 11.1544 11.6129 11.2697 11.5059L11.0635 11.2839ZM10.7346 11.5279C10.6077 11.6025 10.4771 11.6734 10.3426 11.7406L10.4781 12.0116C10.6186 11.9414 10.7553 11.8672 10.8882 11.789L10.7346 11.5279ZM10.3441 11.7399C10.0792 11.8688 9.82292 11.9309 9.57399 11.9309V12.2339C9.87501 12.2339 10.1763 12.1585 10.4767 12.0124L10.3441 11.7399ZM9.57399 11.9309H9.29901V12.2339H9.57399V11.9309ZM9.27759 11.9324C9.11728 11.9553 8.86342 11.936 8.50455 11.8623C8.14942 11.7894 7.70469 11.6662 7.16911 11.4915L7.07513 11.7796C7.61653 11.9562 8.07312 12.0831 8.44362 12.1592C8.81038 12.2344 9.10647 12.2629 9.32044 12.2323L9.27759 11.9324ZM7.17034 11.4919C6.13214 11.1434 4.89486 10.2981 3.45683 8.93616L3.24847 9.15617C4.69769 10.5287 5.97339 11.4097 7.0739 11.7792L7.17034 11.4919ZM3.45838 8.93765C2.27344 7.78309 1.45426 6.72785 0.991304 5.77206L0.718597 5.90416C1.20278 6.90376 2.04873 7.98722 3.24692 9.15468L3.45838 8.93765ZM0.991304 5.77206C0.529057 4.81775 0.356018 3.86508 0.466949 2.91107L0.165962 2.87607C0.0477458 3.89273 0.233704 4.90309 0.718597 5.90416L0.991304 5.77206ZM0.459136 2.94453C0.499523 2.83145 0.53542 2.70753 0.567051 2.5731L0.272092 2.50369C0.242617 2.62896 0.20977 2.74183 0.173775 2.84261L0.459136 2.94453ZM0.566305 2.57613L0.669421 2.17512L0.375954 2.09966L0.272838 2.50066L0.566305 2.57613ZM0.669206 2.17595C0.704507 2.0418 0.753793 1.91519 0.816991 1.79581L0.54919 1.65403C0.4749 1.79436 0.41725 1.94272 0.376169 2.09883L0.669206 2.17595ZM0.816991 1.79581C0.87959 1.67757 0.955939 1.57002 1.04618 1.47284L0.824128 1.26665C0.715771 1.38334 0.624079 1.51258 0.54919 1.65403L0.816991 1.79581ZM1.08666 1.36975V1.301H0.783645V1.36975H1.08666ZM1.04102 1.40939L1.53368 0.928178L1.32195 0.711408L0.829288 1.19262L1.04102 1.40939ZM1.53329 0.92856C1.75776 0.71089 2.01808 0.604665 2.32149 0.604665V0.301651C1.93746 0.301651 1.602 0.439849 1.32235 0.711026L1.53329 0.92856ZM2.32149 0.604665C2.6249 0.604665 2.88522 0.71089 3.10969 0.92856L3.32063 0.711026C3.04098 0.439849 2.70552 0.301651 2.32149 0.301651V0.604665ZM3.10803 0.926925L4.76935 2.58824L4.98361 2.37398L3.32229 0.712661L3.10803 0.926925ZM4.76771 2.58658C4.98538 2.81105 5.09161 3.07137 5.09161 3.37478H5.39462C5.39462 2.99075 5.25642 2.65529 4.98525 2.37564L4.76771 2.58658ZM5.09161 3.37478C5.09161 3.67833 4.98522 3.94331 4.76615 4.17607L4.98681 4.38375C5.25658 4.09711 5.39462 3.75867 5.39462 3.37478H5.09161ZM4.76935 4.17278L4.15065 4.79148L4.36491 5.00574L4.98361 4.38704L4.76935 4.17278ZM4.12573 4.97289C4.26585 5.22199 4.44772 5.51205 4.67067 5.84262L4.92189 5.67319C4.70181 5.34688 4.52469 5.06407 4.38983 4.82433L4.12573 4.97289ZM4.6716 5.84399C4.89906 6.17342 5.18756 6.51611 5.53582 6.8721L5.75242 6.66021C5.41324 6.31348 5.13651 5.98401 4.92095 5.67182L4.6716 5.84399ZM5.53699 6.87329C5.88567 7.22197 6.22491 7.51088 6.55482 7.73867L6.72699 7.48932C6.41529 7.2741 6.09001 6.99778 5.75125 6.65902L5.53699 6.87329ZM6.55619 7.73961C6.88733 7.96293 7.1785 8.14169 7.42913 8.27483L7.57129 8.00724C7.33307 7.88068 7.05137 7.70808 6.72562 7.48839L6.55619 7.73961ZM7.60635 8.24915L8.23651 7.63045L8.02422 7.41423L7.39407 8.03293L7.60635 8.24915ZM8.2375 7.62947C8.31374 7.55323 8.41706 7.49634 8.55501 7.46349L8.48482 7.16872C8.30196 7.21226 8.14559 7.29285 8.02323 7.41521L8.2375 7.62947ZM8.56154 7.46178C8.7077 7.42002 8.86169 7.39887 9.02404 7.39887V7.09586C8.83503 7.09586 8.65293 7.12053 8.47829 7.17043L8.56154 7.46178ZM9.02404 7.39887C9.18645 7.39887 9.33588 7.42004 9.47317 7.46122L9.56024 7.17099C9.392 7.12052 9.21298 7.09586 9.02404 7.09586V7.39887ZM9.48161 7.46349C9.61995 7.49643 9.72921 7.55406 9.81462 7.63336L10.0208 7.41132C9.89233 7.29202 9.73426 7.21216 9.55179 7.16872L9.48161 7.46349ZM9.81351 7.63233L10.6843 8.45725L10.8927 8.23728L10.0219 7.41235L9.81351 7.63233ZM10.683 8.45603C11.1877 8.94547 11.473 9.22311 11.5406 9.29079L11.7549 9.07652C11.6851 9.00671 11.3975 8.72676 10.8939 8.2385L10.683 8.45603ZM9.23027 11.6152C9.27643 11.6152 9.32518 11.6108 9.36984 11.5959L9.27402 11.3085C9.27419 11.3084 9.27097 11.3095 9.26303 11.3105C9.25526 11.3114 9.24451 11.3122 9.23027 11.3122V11.6152ZM9.35867 11.5992C9.39681 11.5897 9.44095 11.5689 9.47461 11.5268C9.50865 11.4843 9.51926 11.4358 9.51926 11.3949H9.21625C9.21625 11.3846 9.21923 11.361 9.23799 11.3375C9.25637 11.3145 9.2776 11.3071 9.28518 11.3052L9.35867 11.5992ZM9.36776 11.5464C9.48935 11.5464 9.60751 11.529 9.72166 11.4939L9.63255 11.2043C9.54811 11.2303 9.46004 11.2434 9.36776 11.2434V11.5464ZM9.71873 11.4948C9.82658 11.464 9.93067 11.4331 10.031 11.4022L9.9419 11.1126C9.84364 11.1429 9.7415 11.1731 9.63548 11.2034L9.71873 11.4948ZM10.0374 11.4001C10.1545 11.3583 10.2672 11.304 10.3752 11.2375L10.2164 10.9795C10.1258 11.0352 10.0322 11.0802 9.9355 11.1148L10.0374 11.4001ZM10.371 11.24C10.4826 11.1762 10.5939 11.1047 10.7047 11.0255L10.5285 10.779C10.4255 10.8526 10.3229 10.9185 10.2206 10.9769L10.371 11.24ZM10.7237 11.0094L11.1362 10.5969L10.9219 10.3827L10.5095 10.7951L10.7237 11.0094ZM11.1401 10.5929C11.2653 10.4581 11.3295 10.2953 11.3295 10.1117H11.0265C11.0265 10.2183 10.9915 10.3076 10.918 10.3867L11.1401 10.5929ZM11.3295 10.1117C11.3295 9.9281 11.2653 9.7653 11.1401 9.63051L10.918 9.8367C10.9915 9.91578 11.0265 10.005 11.0265 10.1117H11.3295ZM11.1362 9.62647L9.47489 7.96516L9.26062 8.17942L10.9219 9.84074L11.1362 9.62647ZM9.42929 7.93384C9.34756 7.89752 9.26376 7.87392 9.17826 7.86442L9.14479 8.16559C9.19677 8.17136 9.25046 8.18596 9.30622 8.21074L9.42929 7.93384ZM9.17826 7.86442C9.10399 7.85617 9.02966 7.85204 8.95529 7.85204V8.15505C9.01841 8.15505 9.08157 8.15856 9.14479 8.16559L9.17826 7.86442ZM8.95529 7.85204C8.87389 7.85204 8.78909 7.85611 8.70097 7.86412L8.7284 8.16589C8.80833 8.15862 8.88393 8.15505 8.95529 8.15505V7.85204ZM8.69961 7.86425C8.60936 7.87327 8.51878 7.89751 8.44818 7.95398L8.63747 8.1906C8.64326 8.18597 8.66725 8.17201 8.72976 8.16576L8.69961 7.86425ZM8.43941 7.96157L7.39679 8.93545L7.60363 9.15689L8.64625 8.18301L8.43941 7.96157ZM7.57816 8.91625L7.23444 8.71002L7.07854 8.96985L7.42226 9.17608L7.57816 8.91625ZM7.22425 8.70442C6.9558 8.5702 6.64001 8.38616 6.27627 8.15125L6.11188 8.4058C6.48141 8.64445 6.80722 8.83469 7.08873 8.97545L7.22425 8.70442ZM6.27627 8.15125C5.92006 7.9212 5.53435 7.60716 5.1191 7.20701L4.90884 7.4252C5.33379 7.8347 5.73482 8.16228 6.11188 8.4058L6.27627 8.15125ZM5.12709 7.21532C4.75568 6.79843 4.44638 6.4135 4.19846 6.0604L3.95047 6.23452C4.20667 6.59941 4.52371 6.99358 4.90084 7.41689L5.12709 7.21532ZM4.19931 6.06162C3.95026 5.69936 3.76432 5.38251 3.63927 5.11033L3.36393 5.23684C3.49857 5.52989 3.69455 5.86228 3.94962 6.23329L4.19931 6.06162ZM3.62959 5.09252L3.4119 4.7488L3.15591 4.91093L3.3736 5.25465L3.62959 5.09252ZM3.39104 4.937L4.43366 3.89438L4.21939 3.68011L3.17678 4.72273L3.39104 4.937ZM4.44935 3.87595C4.56514 3.71563 4.62698 3.53997 4.62698 3.35187H4.32396C4.32396 3.46929 4.2865 3.58389 4.2037 3.69854L4.44935 3.87595ZM4.62698 3.35187C4.62698 3.16283 4.56418 2.99559 4.43755 2.85922L4.2155 3.06541C4.28747 3.14291 4.32396 3.23537 4.32396 3.35187H4.62698ZM4.43366 2.85518L2.77234 1.19387L2.55808 1.40813L4.21939 3.06945L4.43366 2.85518ZM2.72674 1.16255C2.72661 1.16249 2.72648 1.16243 2.72634 1.16237C2.72621 1.16231 2.72607 1.16225 2.72594 1.16219C2.7258 1.16213 2.72567 1.16207 2.72554 1.16202C2.7254 1.16196 2.72527 1.1619 2.72513 1.16184C2.725 1.16178 2.72486 1.16172 2.72473 1.16166C2.7246 1.1616 2.72446 1.16154 2.72433 1.16148C2.72419 1.16142 2.72406 1.16136 2.72392 1.1613C2.72379 1.16124 2.72366 1.16118 2.72352 1.16112C2.72339 1.16106 2.72325 1.161 2.72312 1.16094C2.72298 1.16088 2.72285 1.16082 2.72272 1.16076C2.72258 1.1607 2.72245 1.16064 2.72231 1.16058C2.72218 1.16052 2.72204 1.16046 2.72191 1.1604C2.72178 1.16034 2.72164 1.16028 2.72151 1.16023C2.72137 1.16017 2.72124 1.16011 2.7211 1.16005C2.72097 1.15999 2.72084 1.15993 2.7207 1.15987C2.72057 1.15981 2.72043 1.15975 2.7203 1.15969C2.72016 1.15963 2.72003 1.15957 2.7199 1.15951C2.71976 1.15945 2.71963 1.15939 2.71949 1.15933C2.71936 1.15927 2.71922 1.15921 2.71909 1.15915C2.71896 1.15909 2.71882 1.15903 2.71869 1.15897C2.71855 1.15891 2.71842 1.15885 2.71828 1.15879C2.71815 1.15873 2.71802 1.15867 2.71788 1.15861C2.71775 1.15855 2.71761 1.15849 2.71748 1.15843C2.71734 1.15838 2.71721 1.15832 2.71708 1.15826C2.71694 1.1582 2.71681 1.15814 2.71667 1.15808C2.71654 1.15802 2.71641 1.15796 2.71627 1.1579C2.71614 1.15784 2.716 1.15778 2.71587 1.15772C2.71573 1.15766 2.7156 1.1576 2.71547 1.15754C2.71533 1.15748 2.7152 1.15742 2.71506 1.15736C2.71493 1.1573 2.71479 1.15724 2.71466 1.15718C2.71453 1.15712 2.71439 1.15706 2.71426 1.157C2.71412 1.15694 2.71399 1.15688 2.71385 1.15682C2.71372 1.15676 2.71359 1.1567 2.71345 1.15664C2.71332 1.15658 2.71318 1.15653 2.71305 1.15647C2.71291 1.15641 2.71278 1.15635 2.71265 1.15629C2.71251 1.15623 2.71238 1.15617 2.71224 1.15611C2.71211 1.15605 2.71197 1.15599 2.71184 1.15593C2.71171 1.15587 2.71157 1.15581 2.71144 1.15575C2.7113 1.15569 2.71117 1.15563 2.71103 1.15557C2.7109 1.15551 2.71077 1.15545 2.71063 1.15539C2.7105 1.15533 2.71036 1.15527 2.71023 1.15521C2.71009 1.15515 2.70996 1.15509 2.70983 1.15503C2.70969 1.15497 2.70956 1.15491 2.70942 1.15485C2.70929 1.15479 2.70915 1.15474 2.70902 1.15468C2.70889 1.15462 2.70875 1.15456 2.70862 1.1545C2.70848 1.15444 2.70835 1.15438 2.70821 1.15432C2.70808 1.15426 2.70795 1.1542 2.70781 1.15414C2.70768 1.15408 2.70754 1.15402 2.70741 1.15396C2.70728 1.1539 2.70714 1.15384 2.70701 1.15378C2.70687 1.15372 2.70674 1.15366 2.7066 1.1536C2.70647 1.15354 2.70634 1.15348 2.7062 1.15342C2.70607 1.15336 2.70593 1.1533 2.7058 1.15324C2.70566 1.15318 2.70553 1.15312 2.7054 1.15306C2.70526 1.153 2.70513 1.15294 2.70499 1.15289C2.70486 1.15283 2.70472 1.15277 2.70459 1.15271C2.70446 1.15265 2.70432 1.15259 2.70419 1.15253C2.70405 1.15247 2.70392 1.15241 2.70378 1.15235C2.70365 1.15229 2.70352 1.15223 2.70338 1.15217C2.70325 1.15211 2.70311 1.15205 2.70298 1.15199C2.70284 1.15193 2.70271 1.15187 2.70258 1.15181C2.70244 1.15175 2.70231 1.15169 2.70217 1.15163C2.70204 1.15157 2.7019 1.15151 2.70177 1.15145C2.70164 1.15139 2.7015 1.15133 2.70137 1.15127C2.70123 1.15121 2.7011 1.15115 2.70096 1.15109C2.70083 1.15104 2.7007 1.15098 2.70056 1.15092C2.70043 1.15086 2.70029 1.1508 2.70016 1.15074C2.70002 1.15068 2.69989 1.15062 2.69976 1.15056C2.69962 1.1505 2.69949 1.15044 2.69935 1.15038C2.69922 1.15032 2.69908 1.15026 2.69895 1.1502C2.69882 1.15014 2.69868 1.15008 2.69855 1.15002C2.69841 1.14996 2.69828 1.1499 2.69815 1.14984C2.69801 1.14978 2.69788 1.14972 2.69774 1.14966C2.69761 1.1496 2.69747 1.14954 2.69734 1.14948C2.69721 1.14942 2.69707 1.14936 2.69694 1.1493C2.6968 1.14925 2.69667 1.14919 2.69653 1.14913C2.6964 1.14907 2.69627 1.14901 2.69613 1.14895C2.696 1.14889 2.69586 1.14883 2.69573 1.14877C2.69559 1.14871 2.69546 1.14865 2.69533 1.14859C2.69519 1.14853 2.69506 1.14847 2.69492 1.14841C2.69479 1.14835 2.69465 1.14829 2.69452 1.14823C2.69439 1.14817 2.69425 1.14811 2.69412 1.14805C2.69398 1.14799 2.69385 1.14793 2.69371 1.14787C2.69358 1.14781 2.69345 1.14775 2.69331 1.14769C2.69318 1.14763 2.69304 1.14757 2.69291 1.14751C2.69277 1.14745 2.69264 1.1474 2.69251 1.14734C2.69237 1.14728 2.69224 1.14722 2.6921 1.14716C2.69197 1.1471 2.69183 1.14704 2.6917 1.14698C2.69157 1.14692 2.69143 1.14686 2.6913 1.1468C2.69116 1.14674 2.69103 1.14668 2.69089 1.14662C2.69076 1.14656 2.69063 1.1465 2.69049 1.14644C2.69036 1.14638 2.69022 1.14632 2.69009 1.14626C2.68995 1.1462 2.68982 1.14614 2.68969 1.14608C2.68955 1.14602 2.68942 1.14596 2.68928 1.1459C2.68915 1.14584 2.68902 1.14578 2.68888 1.14572C2.68875 1.14566 2.68861 1.14561 2.68848 1.14555C2.68834 1.14549 2.68821 1.14543 2.68808 1.14537C2.68794 1.14531 2.68781 1.14525 2.68767 1.14519C2.68754 1.14513 2.6874 1.14507 2.68727 1.14501C2.68714 1.14495 2.687 1.14489 2.68687 1.14483C2.68673 1.14477 2.6866 1.14471 2.68646 1.14465C2.68633 1.14459 2.6862 1.14453 2.68606 1.14447C2.68593 1.14441 2.68579 1.14435 2.68566 1.14429C2.68552 1.14423 2.68539 1.14417 2.68526 1.14411C2.68512 1.14405 2.68499 1.14399 2.68485 1.14393C2.68472 1.14387 2.68458 1.14381 2.68445 1.14376C2.68432 1.1437 2.68418 1.14364 2.68405 1.14358C2.68391 1.14352 2.68378 1.14346 2.68364 1.1434C2.68351 1.14334 2.68338 1.14328 2.68324 1.14322C2.68311 1.14316 2.68297 1.1431 2.68284 1.14304C2.6827 1.14298 2.68257 1.14292 2.68244 1.14286C2.6823 1.1428 2.68217 1.14274 2.68203 1.14268C2.6819 1.14262 2.68176 1.14256 2.68163 1.1425C2.6815 1.14244 2.68136 1.14238 2.68123 1.14232C2.68109 1.14226 2.68096 1.1422 2.68082 1.14214C2.68069 1.14208 2.68056 1.14202 2.68042 1.14196C2.68029 1.14191 2.68015 1.14185 2.68002 1.14179C2.67988 1.14173 2.67975 1.14167 2.67962 1.14161C2.67948 1.14155 2.67935 1.14149 2.67921 1.14143C2.67908 1.14137 2.67895 1.14131 2.67881 1.14125C2.67868 1.14119 2.67854 1.14113 2.67841 1.14107C2.67827 1.14101 2.67814 1.14095 2.67801 1.14089C2.67787 1.14083 2.67774 1.14077 2.6776 1.14071C2.67747 1.14065 2.67733 1.14059 2.6772 1.14053C2.67707 1.14047 2.67693 1.14041 2.6768 1.14035C2.67666 1.14029 2.67653 1.14023 2.67639 1.14017C2.67626 1.14012 2.67613 1.14006 2.67599 1.14C2.67586 1.13994 2.67572 1.13988 2.67559 1.13982C2.67545 1.13976 2.67532 1.1397 2.67519 1.13964C2.67505 1.13958 2.67492 1.13952 2.67478 1.13946C2.67465 1.1394 2.67451 1.13934 2.67438 1.13928C2.67425 1.13922 2.67411 1.13916 2.67398 1.1391C2.67384 1.13904 2.67371 1.13898 2.67357 1.13892C2.67344 1.13886 2.67331 1.1388 2.67317 1.13874C2.67304 1.13868 2.6729 1.13862 2.67277 1.13856C2.67263 1.1385 2.6725 1.13844 2.67237 1.13838C2.67223 1.13832 2.6721 1.13827 2.67196 1.13821C2.67183 1.13815 2.67169 1.13809 2.67156 1.13803C2.67143 1.13797 2.67129 1.13791 2.67116 1.13785C2.67102 1.13779 2.67089 1.13773 2.67075 1.13767C2.67062 1.13761 2.67049 1.13755 2.67035 1.13749C2.67022 1.13743 2.67008 1.13737 2.66995 1.13731C2.66981 1.13725 2.66968 1.13719 2.66955 1.13713C2.66941 1.13707 2.66928 1.13701 2.66914 1.13695C2.66901 1.13689 2.66888 1.13683 2.66874 1.13677C2.66861 1.13671 2.66847 1.13665 2.66834 1.13659C2.6682 1.13653 2.66807 1.13647 2.66794 1.13642C2.6678 1.13636 2.66767 1.1363 2.66753 1.13624C2.6674 1.13618 2.66726 1.13612 2.66713 1.13606C2.667 1.136 2.66686 1.13594 2.66673 1.13588C2.66659 1.13582 2.66646 1.13576 2.66632 1.1357C2.66619 1.13564 2.66606 1.13558 2.66592 1.13552C2.66579 1.13546 2.66565 1.1354 2.66552 1.13534C2.66538 1.13528 2.66525 1.13522 2.66512 1.13516C2.66498 1.1351 2.66485 1.13504 2.66471 1.13498C2.66458 1.13492 2.66444 1.13486 2.66431 1.1348C2.66418 1.13474 2.66404 1.13468 2.66391 1.13463C2.66377 1.13457 2.66364 1.13451 2.6635 1.13445C2.66337 1.13439 2.66324 1.13433 2.6631 1.13427C2.66297 1.13421 2.66283 1.13415 2.6627 1.13409C2.66256 1.13403 2.66243 1.13397 2.6623 1.13391C2.66216 1.13385 2.66203 1.13379 2.66189 1.13373C2.66176 1.13367 2.66162 1.13361 2.66149 1.13355C2.66136 1.13349 2.66122 1.13343 2.66109 1.13337C2.66095 1.13331 2.66082 1.13325 2.66068 1.13319C2.66055 1.13313 2.66042 1.13307 2.66028 1.13301C2.66015 1.13295 2.66001 1.13289 2.65988 1.13283C2.65975 1.13278 2.65961 1.13272 2.65948 1.13266C2.65934 1.1326 2.65921 1.13254 2.65907 1.13248C2.65894 1.13242 2.65881 1.13236 2.65867 1.1323C2.65854 1.13224 2.6584 1.13218 2.65827 1.13212C2.65813 1.13206 2.658 1.132 2.65787 1.13194C2.65773 1.13188 2.6576 1.13182 2.65746 1.13176C2.65733 1.1317 2.65719 1.13164 2.65706 1.13158C2.65693 1.13152 2.65679 1.13146 2.65666 1.1314C2.65652 1.13134 2.65639 1.13128 2.65625 1.13122C2.65612 1.13116 2.65599 1.1311 2.65585 1.13104C2.65572 1.13098 2.65558 1.13093 2.65545 1.13087C2.65531 1.13081 2.65518 1.13075 2.65505 1.13069C2.65491 1.13063 2.65478 1.13057 2.65464 1.13051C2.65451 1.13045 2.65437 1.13039 2.65424 1.13033C2.65411 1.13027 2.65397 1.13021 2.65384 1.13015C2.6537 1.13009 2.65357 1.13003 2.65343 1.12997C2.6533 1.12991 2.65317 1.12985 2.65303 1.12979C2.6529 1.12973 2.65276 1.12967 2.65263 1.12961C2.65249 1.12955 2.65236 1.12949 2.65223 1.12943C2.65209 1.12937 2.65196 1.12931 2.65182 1.12925C2.65169 1.12919 2.65155 1.12914 2.65142 1.12908C2.65129 1.12902 2.65115 1.12896 2.65102 1.1289C2.65088 1.12884 2.65075 1.12878 2.65061 1.12872C2.65048 1.12866 2.65035 1.1286 2.65021 1.12854C2.65008 1.12848 2.64994 1.12842 2.64981 1.12836C2.64968 1.1283 2.64954 1.12824 2.64941 1.12818C2.64927 1.12812 2.64914 1.12806 2.649 1.128C2.64887 1.12794 2.64874 1.12788 2.6486 1.12782C2.64847 1.12776 2.64833 1.1277 2.6482 1.12764C2.64806 1.12758 2.64793 1.12752 2.6478 1.12746C2.64766 1.1274 2.64753 1.12734 2.64739 1.12729C2.64726 1.12723 2.64712 1.12717 2.64699 1.12711C2.64686 1.12705 2.64672 1.12699 2.64659 1.12693C2.64645 1.12687 2.64632 1.12681 2.64618 1.12675C2.64605 1.12669 2.64592 1.12663 2.64578 1.12657C2.64565 1.12651 2.64551 1.12645 2.64538 1.12639C2.64524 1.12633 2.64511 1.12627 2.64498 1.12621C2.64484 1.12615 2.64471 1.12609 2.64457 1.12603C2.64444 1.12597 2.6443 1.12591 2.64417 1.12585C2.64404 1.12579 2.6439 1.12573 2.64377 1.12567C2.64363 1.12561 2.6435 1.12555 2.64336 1.12549C2.64323 1.12544 2.6431 1.12538 2.64296 1.12532C2.64283 1.12526 2.64269 1.1252 2.64256 1.12514C2.64242 1.12508 2.64229 1.12502 2.64216 1.12496C2.64202 1.1249 2.64189 1.12484 2.64175 1.12478C2.64162 1.12472 2.64148 1.12466 2.64135 1.1246C2.64122 1.12454 2.64108 1.12448 2.64095 1.12442C2.64081 1.12436 2.64068 1.1243 2.64055 1.12424C2.64041 1.12418 2.64028 1.12412 2.64014 1.12406C2.64001 1.124 2.63987 1.12394 2.63974 1.12388C2.63961 1.12382 2.63947 1.12376 2.63934 1.1237C2.6392 1.12365 2.63907 1.12359 2.63893 1.12353C2.6388 1.12347 2.63867 1.12341 2.63853 1.12335C2.6384 1.12329 2.63826 1.12323 2.63813 1.12317C2.63799 1.12311 2.63786 1.12305 2.63773 1.12299C2.63759 1.12293 2.63746 1.12287 2.63732 1.12281C2.63719 1.12275 2.63705 1.12269 2.63692 1.12263C2.63679 1.12257 2.63665 1.12251 2.63652 1.12245C2.63638 1.12239 2.63625 1.12233 2.63611 1.12227C2.63598 1.12221 2.63585 1.12215 2.63571 1.12209C2.63558 1.12203 2.63544 1.12197 2.63531 1.12191C2.63517 1.12185 2.63504 1.1218 2.63491 1.12174C2.63477 1.12168 2.63464 1.12162 2.6345 1.12156C2.63437 1.1215 2.63423 1.12144 2.6341 1.12138C2.63397 1.12132 2.63383 1.12126 2.6337 1.1212C2.63356 1.12114 2.63343 1.12108 2.63329 1.12102C2.63316 1.12096 2.63303 1.1209 2.63289 1.12084C2.63276 1.12078 2.63262 1.12072 2.63249 1.12066C2.63235 1.1206 2.63222 1.12054 2.63209 1.12048C2.63195 1.12042 2.63182 1.12036 2.63168 1.1203C2.63155 1.12024 2.63142 1.12018 2.63128 1.12012C2.63115 1.12006 2.63101 1.12001 2.63088 1.11995C2.63074 1.11989 2.63061 1.11983 2.63048 1.11977C2.63034 1.11971 2.63021 1.11965 2.63007 1.11959C2.62994 1.11953 2.6298 1.11947 2.62967 1.11941C2.62954 1.11935 2.6294 1.11929 2.62927 1.11923C2.62913 1.11917 2.629 1.11911 2.62886 1.11905C2.62873 1.11899 2.6286 1.11893 2.62846 1.11887C2.62833 1.11881 2.62819 1.11875 2.62806 1.11869C2.62792 1.11863 2.62779 1.11857 2.62766 1.11851C2.62752 1.11845 2.62739 1.11839 2.62725 1.11833C2.62712 1.11827 2.62698 1.11821 2.62685 1.11816C2.62672 1.1181 2.62658 1.11804 2.62645 1.11798C2.62631 1.11792 2.62618 1.11786 2.62604 1.1178C2.62591 1.11774 2.62578 1.11768 2.62564 1.11762C2.62551 1.11756 2.62537 1.1175 2.62524 1.11744C2.6251 1.11738 2.62497 1.11732 2.62484 1.11726C2.6247 1.1172 2.62457 1.11714 2.62443 1.11708C2.6243 1.11702 2.62416 1.11696 2.62403 1.1169C2.6239 1.11684 2.62376 1.11678 2.62363 1.11672C2.62349 1.11666 2.62336 1.1166 2.62322 1.11654C2.62309 1.11648 2.62296 1.11642 2.62282 1.11636C2.62269 1.11631 2.62255 1.11625 2.62242 1.11619C2.62228 1.11613 2.62215 1.11607 2.62202 1.11601C2.62188 1.11595 2.62175 1.11589 2.62161 1.11583C2.62148 1.11577 2.62135 1.11571 2.62121 1.11565C2.62108 1.11559 2.62094 1.11553 2.62081 1.11547C2.62067 1.11541 2.62054 1.11535 2.62041 1.11529C2.62027 1.11523 2.62014 1.11517 2.62 1.11511C2.61987 1.11505 2.61973 1.11499 2.6196 1.11493C2.61947 1.11487 2.61933 1.11481 2.6192 1.11475C2.61906 1.11469 2.61893 1.11463 2.61879 1.11457C2.61866 1.11452 2.61853 1.11446 2.61839 1.1144C2.61826 1.11434 2.61812 1.11428 2.61799 1.11422C2.61785 1.11416 2.61772 1.1141 2.61759 1.11404C2.61745 1.11398 2.61732 1.11392 2.61718 1.11386C2.61705 1.1138 2.61691 1.11374 2.61678 1.11368C2.61665 1.11362 2.61651 1.11356 2.61638 1.1135C2.61624 1.11344 2.61611 1.11338 2.61597 1.11332C2.61584 1.11326 2.61571 1.1132 2.61557 1.11314C2.61544 1.11308 2.6153 1.11302 2.61517 1.11296C2.61503 1.1129 2.6149 1.11284 2.61477 1.11278C2.61463 1.11272 2.6145 1.11267 2.61436 1.11261C2.61423 1.11255 2.61409 1.11249 2.61396 1.11243C2.61383 1.11237 2.61369 1.11231 2.61356 1.11225C2.61342 1.11219 2.61329 1.11213 2.61315 1.11207C2.61302 1.11201 2.61289 1.11195 2.61275 1.11189C2.61262 1.11183 2.61248 1.11177 2.61235 1.11171C2.61221 1.11165 2.61208 1.11159 2.61195 1.11153C2.61181 1.11147 2.61168 1.11141 2.61154 1.11135C2.61141 1.11129 2.61128 1.11123 2.61114 1.11117C2.61101 1.11111 2.61087 1.11105 2.61074 1.11099C2.6106 1.11093 2.61047 1.11087 2.61034 1.11082C2.6102 1.11076 2.61007 1.1107 2.60993 1.11064C2.6098 1.11058 2.60966 1.11052 2.60953 1.11046C2.6094 1.1104 2.60926 1.11034 2.60913 1.11028C2.60899 1.11022 2.60886 1.11016 2.60872 1.1101C2.60859 1.11004 2.60846 1.10998 2.60832 1.10992C2.60819 1.10986 2.60805 1.1098 2.60792 1.10974C2.60778 1.10968 2.60765 1.10962 2.60752 1.10956C2.60738 1.1095 2.60725 1.10944 2.60711 1.10938C2.60698 1.10932 2.60684 1.10926 2.60671 1.1092C2.60658 1.10914 2.60644 1.10908 2.60631 1.10903C2.60617 1.10897 2.60604 1.10891 2.6059 1.10885C2.60577 1.10879 2.60564 1.10873 2.6055 1.10867C2.60537 1.10861 2.60523 1.10855 2.6051 1.10849C2.60496 1.10843 2.60483 1.10837 2.6047 1.10831C2.60456 1.10825 2.60443 1.10819 2.60429 1.10813C2.60416 1.10807 2.60402 1.10801 2.60389 1.10795C2.60376 1.10789 2.60362 1.10783 2.60349 1.10777C2.60335 1.10771 2.60322 1.10765 2.60308 1.10759C2.60295 1.10753 2.60282 1.10747 2.60268 1.10741C2.60255 1.10735 2.60241 1.10729 2.60228 1.10723C2.60215 1.10718 2.60201 1.10712 2.60188 1.10706C2.60174 1.107 2.60161 1.10694 2.60147 1.10688C2.60134 1.10682 2.60121 1.10676 2.60107 1.1067C2.60094 1.10664 2.6008 1.10658 2.60067 1.10652C2.60053 1.10646 2.6004 1.1064 2.60027 1.10634C2.60013 1.10628 2.6 1.10622 2.59986 1.10616C2.59973 1.1061 2.59959 1.10604 2.59946 1.10598C2.59933 1.10592 2.59919 1.10586 2.59906 1.1058C2.59892 1.10574 2.59879 1.10568 2.59865 1.10562C2.59852 1.10556 2.59839 1.1055 2.59825 1.10544C2.59812 1.10538 2.59798 1.10533 2.59785 1.10527C2.59771 1.10521 2.59758 1.10515 2.59745 1.10509C2.59731 1.10503 2.59718 1.10497 2.59704 1.10491C2.59691 1.10485 2.59677 1.10479 2.59664 1.10473C2.59651 1.10467 2.59637 1.10461 2.59624 1.10455C2.5961 1.10449 2.59597 1.10443 2.59583 1.10437C2.5957 1.10431 2.59557 1.10425 2.59543 1.10419C2.5953 1.10413 2.59516 1.10407 2.59503 1.10401C2.59489 1.10395 2.59476 1.10389 2.59463 1.10383C2.59449 1.10377 2.59436 1.10371 2.59422 1.10365C2.59409 1.10359 2.59395 1.10354 2.59382 1.10348C2.59369 1.10342 2.59355 1.10336 2.59342 1.1033C2.59328 1.10324 2.59315 1.10318 2.59301 1.10312C2.59288 1.10306 2.59275 1.103 2.59261 1.10294C2.59248 1.10288 2.59234 1.10282 2.59221 1.10276C2.59208 1.1027 2.59194 1.10264 2.59181 1.10258C2.59167 1.10252 2.59154 1.10246 2.5914 1.1024C2.59127 1.10234 2.59114 1.10228 2.591 1.10222C2.59087 1.10216 2.59073 1.1021 2.5906 1.10204C2.59046 1.10198 2.59033 1.10192 2.5902 1.10186C2.59006 1.1018 2.58993 1.10174 2.58979 1.10169C2.58966 1.10163 2.58952 1.10157 2.58939 1.10151C2.58926 1.10145 2.58912 1.10139 2.58899 1.10133C2.58885 1.10127 2.58872 1.10121 2.58858 1.10115C2.58845 1.10109 2.58832 1.10103 2.58818 1.10097C2.58805 1.10091 2.58791 1.10085 2.58778 1.10079C2.58764 1.10073 2.58751 1.10067 2.58738 1.10061C2.58724 1.10055 2.58711 1.10049 2.58697 1.10043C2.58684 1.10037 2.5867 1.10031 2.58657 1.10025C2.58644 1.10019 2.5863 1.10013 2.58617 1.10007C2.58603 1.10001 2.5859 1.09995 2.58576 1.09989C2.58563 1.09984 2.5855 1.09978 2.58536 1.09972C2.58523 1.09966 2.58509 1.0996 2.58496 1.09954C2.58482 1.09948 2.58469 1.09942 2.58456 1.09936C2.58442 1.0993 2.58429 1.09924 2.58415 1.09918C2.58402 1.09912 2.58388 1.09906 2.58375 1.099C2.58362 1.09894 2.58348 1.09888 2.58335 1.09882C2.58321 1.09876 2.58308 1.0987 2.58294 1.09864C2.58281 1.09858 2.58268 1.09852 2.58254 1.09846C2.58241 1.0984 2.58227 1.09834 2.58214 1.09828C2.58201 1.09822 2.58187 1.09816 2.58174 1.0981C2.5816 1.09805 2.58147 1.09799 2.58133 1.09793C2.5812 1.09787 2.58107 1.09781 2.58093 1.09775C2.5808 1.09769 2.58066 1.09763 2.58053 1.09757C2.58039 1.09751 2.58026 1.09745 2.58013 1.09739C2.57999 1.09733 2.57986 1.09727 2.57972 1.09721C2.57959 1.09715 2.57945 1.09709 2.57932 1.09703C2.57919 1.09697 2.57905 1.09691 2.57892 1.09685C2.57878 1.09679 2.57865 1.09673 2.57851 1.09667C2.57838 1.09661 2.57825 1.09655 2.57811 1.09649C2.57798 1.09643 2.57784 1.09637 2.57771 1.09631C2.57757 1.09625 2.57744 1.0962 2.57731 1.09614C2.57717 1.09608 2.57704 1.09602 2.5769 1.09596C2.57677 1.0959 2.57663 1.09584 2.5765 1.09578C2.57637 1.09572 2.57623 1.09566 2.5761 1.0956C2.57596 1.09554 2.57583 1.09548 2.57569 1.09542C2.57556 1.09536 2.57543 1.0953 2.57529 1.09524C2.57516 1.09518 2.57502 1.09512 2.57489 1.09506C2.57475 1.095 2.57462 1.09494 2.57449 1.09488C2.57435 1.09482 2.57422 1.09476 2.57408 1.0947C2.57395 1.09464 2.57381 1.09458 2.57368 1.09452C2.57355 1.09446 2.57341 1.0944 2.57328 1.09435C2.57314 1.09429 2.57301 1.09423 2.57288 1.09417C2.57274 1.09411 2.57261 1.09405 2.57247 1.09399C2.57234 1.09393 2.5722 1.09387 2.57207 1.09381C2.57194 1.09375 2.5718 1.09369 2.57167 1.09363C2.57153 1.09357 2.5714 1.09351 2.57126 1.09345C2.57113 1.09339 2.571 1.09333 2.57086 1.09327C2.57073 1.09321 2.57059 1.09315 2.57046 1.09309C2.57032 1.09303 2.57019 1.09297 2.57006 1.09291C2.56992 1.09285 2.56979 1.09279 2.56965 1.09273C2.56952 1.09267 2.56938 1.09261 2.56925 1.09256C2.56912 1.0925 2.56898 1.09244 2.56885 1.09238C2.56871 1.09232 2.56858 1.09226 2.56844 1.0922C2.56831 1.09214 2.56818 1.09208 2.56804 1.09202C2.56791 1.09196 2.56777 1.0919 2.56764 1.09184C2.5675 1.09178 2.56737 1.09172 2.56724 1.09166C2.5671 1.0916 2.56697 1.09154 2.56683 1.09148C2.5667 1.09142 2.56656 1.09136 2.56643 1.0913C2.5663 1.09124 2.56616 1.09118 2.56603 1.09112C2.56589 1.09106 2.56576 1.091 2.56562 1.09094C2.56549 1.09088 2.56536 1.09082 2.56522 1.09076C2.56509 1.09071 2.56495 1.09065 2.56482 1.09059C2.56468 1.09053 2.56455 1.09047 2.56442 1.09041C2.56428 1.09035 2.56415 1.09029 2.56401 1.09023C2.56388 1.09017 2.56375 1.09011 2.56361 1.09005C2.56348 1.08999 2.56334 1.08993 2.56321 1.08987C2.56307 1.08981 2.56294 1.08975 2.56281 1.08969C2.56267 1.08963 2.56254 1.08957 2.5624 1.08951C2.56227 1.08945 2.56213 1.08939 2.562 1.08933C2.56187 1.08927 2.56173 1.08921 2.5616 1.08915C2.56146 1.08909 2.56133 1.08903 2.56119 1.08897C2.56106 1.08892 2.56093 1.08886 2.56079 1.0888C2.56066 1.08874 2.56052 1.08868 2.56039 1.08862C2.56025 1.08856 2.56012 1.0885 2.55999 1.08844C2.55985 1.08838 2.55972 1.08832 2.55958 1.08826C2.55945 1.0882 2.55931 1.08814 2.55918 1.08808C2.55905 1.08802 2.55891 1.08796 2.55878 1.0879C2.55864 1.08784 2.55851 1.08778 2.55837 1.08772C2.55824 1.08766 2.55811 1.0876 2.55797 1.08754C2.55784 1.08748 2.5577 1.08742 2.55757 1.08736C2.55743 1.0873 2.5573 1.08724 2.55717 1.08718C2.55703 1.08712 2.5569 1.08707 2.55676 1.08701C2.55663 1.08695 2.55649 1.08689 2.55636 1.08683C2.55623 1.08677 2.55609 1.08671 2.55596 1.08665C2.55582 1.08659 2.55569 1.08653 2.55555 1.08647C2.55542 1.08641 2.55529 1.08635 2.55515 1.08629C2.55502 1.08623 2.55488 1.08617 2.55475 1.08611C2.55462 1.08605 2.55448 1.08599 2.55435 1.08593C2.55421 1.08587 2.55408 1.08581 2.55394 1.08575C2.55381 1.08569 2.55368 1.08563 2.55354 1.08557C2.55341 1.08551 2.55327 1.08545 2.55314 1.08539C2.553 1.08533 2.55287 1.08527 2.55274 1.08522C2.5526 1.08516 2.55247 1.0851 2.55233 1.08504C2.5522 1.08498 2.55206 1.08492 2.55193 1.08486C2.5518 1.0848 2.55166 1.08474 2.55153 1.08468C2.55139 1.08462 2.55126 1.08456 2.55112 1.0845C2.55099 1.08444 2.55086 1.08438 2.55072 1.08432C2.55059 1.08426 2.55045 1.0842 2.55032 1.08414C2.55018 1.08408 2.55005 1.08402 2.54992 1.08396C2.54978 1.0839 2.54965 1.08384 2.54951 1.08378C2.54938 1.08372 2.54924 1.08366 2.54911 1.0836C2.54898 1.08354 2.54884 1.08348 2.54871 1.08343C2.54857 1.08337 2.54844 1.08331 2.5483 1.08325C2.54817 1.08319 2.54804 1.08313 2.5479 1.08307C2.54777 1.08301 2.54763 1.08295 2.5475 1.08289C2.54736 1.08283 2.54723 1.08277 2.5471 1.08271C2.54696 1.08265 2.54683 1.08259 2.54669 1.08253C2.54656 1.08247 2.54642 1.08241 2.54629 1.08235C2.54616 1.08229 2.54602 1.08223 2.54589 1.08217C2.54575 1.08211 2.54562 1.08205 2.54548 1.08199C2.54535 1.08193 2.54522 1.08187 2.54508 1.08181C2.54495 1.08175 2.54481 1.08169 2.54468 1.08163C2.54455 1.08158 2.54441 1.08152 2.54428 1.08146C2.54414 1.0814 2.54401 1.08134 2.54387 1.08128C2.54374 1.08122 2.54361 1.08116 2.54347 1.0811C2.54334 1.08104 2.5432 1.08098 2.54307 1.08092C2.54293 1.08086 2.5428 1.0808 2.54267 1.08074C2.54253 1.08068 2.5424 1.08062 2.54226 1.08056C2.54213 1.0805 2.54199 1.08044 2.54186 1.08038C2.54173 1.08032 2.54159 1.08026 2.54146 1.0802C2.54132 1.08014 2.54119 1.08008 2.54105 1.08002C2.54092 1.07996 2.54079 1.0799 2.54065 1.07984C2.54052 1.07978 2.54038 1.07973 2.54025 1.07967C2.54011 1.07961 2.53998 1.07955 2.53985 1.07949C2.53971 1.07943 2.53958 1.07937 2.53944 1.07931C2.53931 1.07925 2.53917 1.07919 2.53904 1.07913C2.53891 1.07907 2.53877 1.07901 2.53864 1.07895C2.5385 1.07889 2.53837 1.07883 2.53823 1.07877C2.5381 1.07871 2.53797 1.07865 2.53783 1.07859C2.5377 1.07853 2.53756 1.07847 2.53743 1.07841C2.53729 1.07835 2.53716 1.07829 2.53703 1.07823C2.53689 1.07817 2.53676 1.07811 2.53662 1.07805C2.53649 1.07799 2.53635 1.07794 2.53622 1.07788C2.53609 1.07782 2.53595 1.07776 2.53582 1.0777C2.53568 1.07764 2.53555 1.07758 2.53541 1.07752C2.53528 1.07746 2.53515 1.0774 2.53501 1.07734C2.53488 1.07728 2.53474 1.07722 2.53461 1.07716C2.53448 1.0771 2.53434 1.07704 2.53421 1.07698C2.53407 1.07692 2.53394 1.07686 2.5338 1.0768C2.53367 1.07674 2.53354 1.07668 2.5334 1.07662C2.53327 1.07656 2.53313 1.0765 2.533 1.07644C2.53286 1.07638 2.53273 1.07632 2.5326 1.07626C2.53246 1.0762 2.53233 1.07614 2.53219 1.07609C2.53206 1.07603 2.53192 1.07597 2.53179 1.07591C2.53166 1.07585 2.53152 1.07579 2.53139 1.07573C2.53125 1.07567 2.53112 1.07561 2.53098 1.07555C2.53085 1.07549 2.53072 1.07543 2.53058 1.07537C2.53045 1.07531 2.53031 1.07525 2.53018 1.07519C2.53004 1.07513 2.52991 1.07507 2.52978 1.07501C2.52964 1.07495 2.52951 1.07489 2.52937 1.07483C2.52924 1.07477 2.5291 1.07471 2.52897 1.07465C2.52884 1.07459 2.5287 1.07453 2.52857 1.07447C2.52843 1.07441 2.5283 1.07435 2.52816 1.07429C2.52803 1.07424 2.5279 1.07418 2.52776 1.07412C2.52763 1.07406 2.52749 1.074 2.52736 1.07394C2.52722 1.07388 2.52709 1.07382 2.52696 1.07376C2.52682 1.0737 2.52669 1.07364 2.52655 1.07358C2.52642 1.07352 2.52628 1.07346 2.52615 1.0734C2.52602 1.07334 2.52588 1.07328 2.52575 1.07322C2.52561 1.07316 2.52548 1.0731 2.52535 1.07304C2.52521 1.07298 2.52508 1.07292 2.52494 1.07286C2.52481 1.0728 2.52467 1.07274 2.52454 1.07268C2.52441 1.07262 2.52427 1.07256 2.52414 1.0725C2.524 1.07245 2.52387 1.07239 2.52373 1.07233C2.5236 1.07227 2.52347 1.07221 2.52333 1.07215C2.5232 1.07209 2.52306 1.07203 2.52293 1.07197C2.52279 1.07191 2.52266 1.07185 2.52253 1.07179C2.52239 1.07173 2.52226 1.07167 2.52212 1.07161C2.52199 1.07155 2.52185 1.07149 2.52172 1.07143C2.52159 1.07137 2.52145 1.07131 2.52132 1.07125C2.52118 1.07119 2.52105 1.07113 2.52091 1.07107C2.52078 1.07101 2.52065 1.07095 2.52051 1.07089L2.39745 1.34779C2.39758 1.34785 2.39771 1.34791 2.39785 1.34797C2.39798 1.34803 2.39812 1.34809 2.39825 1.34815C2.39839 1.34821 2.39852 1.34827 2.39865 1.34833C2.39879 1.34839 2.39892 1.34845 2.39906 1.34851C2.39919 1.34857 2.39933 1.34863 2.39946 1.34869C2.39959 1.34875 2.39973 1.34881 2.39986 1.34887C2.4 1.34893 2.40013 1.34899 2.40027 1.34904C2.4004 1.3491 2.40053 1.34916 2.40067 1.34922C2.4008 1.34928 2.40094 1.34934 2.40107 1.3494C2.40121 1.34946 2.40134 1.34952 2.40147 1.34958C2.40161 1.34964 2.40174 1.3497 2.40188 1.34976C2.40201 1.34982 2.40214 1.34988 2.40228 1.34994C2.40241 1.35 2.40255 1.35006 2.40268 1.35012C2.40282 1.35018 2.40295 1.35024 2.40308 1.3503C2.40322 1.35036 2.40335 1.35042 2.40349 1.35048C2.40362 1.35054 2.40376 1.3506 2.40389 1.35066C2.40402 1.35072 2.40416 1.35078 2.40429 1.35084C2.40443 1.35089 2.40456 1.35095 2.4047 1.35101C2.40483 1.35107 2.40496 1.35113 2.4051 1.35119C2.40523 1.35125 2.40537 1.35131 2.4055 1.35137C2.40564 1.35143 2.40577 1.35149 2.4059 1.35155C2.40604 1.35161 2.40617 1.35167 2.40631 1.35173C2.40644 1.35179 2.40658 1.35185 2.40671 1.35191C2.40684 1.35197 2.40698 1.35203 2.40711 1.35209C2.40725 1.35215 2.40738 1.35221 2.40752 1.35227C2.40765 1.35233 2.40778 1.35239 2.40792 1.35245C2.40805 1.35251 2.40819 1.35257 2.40832 1.35263C2.40846 1.35268 2.40859 1.35274 2.40872 1.3528C2.40886 1.35286 2.40899 1.35292 2.40913 1.35298C2.40926 1.35304 2.4094 1.3531 2.40953 1.35316C2.40966 1.35322 2.4098 1.35328 2.40993 1.35334C2.41007 1.3534 2.4102 1.35346 2.41034 1.35352C2.41047 1.35358 2.4106 1.35364 2.41074 1.3537C2.41087 1.35376 2.41101 1.35382 2.41114 1.35388C2.41128 1.35394 2.41141 1.354 2.41154 1.35406C2.41168 1.35412 2.41181 1.35418 2.41195 1.35424C2.41208 1.3543 2.41221 1.35436 2.41235 1.35442C2.41248 1.35448 2.41262 1.35453 2.41275 1.35459C2.41289 1.35465 2.41302 1.35471 2.41315 1.35477C2.41329 1.35483 2.41342 1.35489 2.41356 1.35495C2.41369 1.35501 2.41383 1.35507 2.41396 1.35513C2.41409 1.35519 2.41423 1.35525 2.41436 1.35531C2.4145 1.35537 2.41463 1.35543 2.41477 1.35549C2.4149 1.35555 2.41503 1.35561 2.41517 1.35567C2.4153 1.35573 2.41544 1.35579 2.41557 1.35585C2.41571 1.35591 2.41584 1.35597 2.41597 1.35603C2.41611 1.35609 2.41624 1.35615 2.41638 1.35621C2.41651 1.35627 2.41665 1.35633 2.41678 1.35638C2.41691 1.35644 2.41705 1.3565 2.41718 1.35656C2.41732 1.35662 2.41745 1.35668 2.41759 1.35674C2.41772 1.3568 2.41785 1.35686 2.41799 1.35692C2.41812 1.35698 2.41826 1.35704 2.41839 1.3571C2.41853 1.35716 2.41866 1.35722 2.41879 1.35728C2.41893 1.35734 2.41906 1.3574 2.4192 1.35746C2.41933 1.35752 2.41947 1.35758 2.4196 1.35764C2.41973 1.3577 2.41987 1.35776 2.42 1.35782C2.42014 1.35788 2.42027 1.35794 2.42041 1.358C2.42054 1.35806 2.42067 1.35812 2.42081 1.35817C2.42094 1.35823 2.42108 1.35829 2.42121 1.35835C2.42134 1.35841 2.42148 1.35847 2.42161 1.35853C2.42175 1.35859 2.42188 1.35865 2.42202 1.35871C2.42215 1.35877 2.42228 1.35883 2.42242 1.35889C2.42255 1.35895 2.42269 1.35901 2.42282 1.35907C2.42296 1.35913 2.42309 1.35919 2.42322 1.35925C2.42336 1.35931 2.42349 1.35937 2.42363 1.35943C2.42376 1.35949 2.4239 1.35955 2.42403 1.35961C2.42416 1.35967 2.4243 1.35973 2.42443 1.35979C2.42457 1.35985 2.4247 1.35991 2.42484 1.35997C2.42497 1.36002 2.4251 1.36008 2.42524 1.36014C2.42537 1.3602 2.42551 1.36026 2.42564 1.36032C2.42578 1.36038 2.42591 1.36044 2.42604 1.3605C2.42618 1.36056 2.42631 1.36062 2.42645 1.36068C2.42658 1.36074 2.42672 1.3608 2.42685 1.36086C2.42698 1.36092 2.42712 1.36098 2.42725 1.36104C2.42739 1.3611 2.42752 1.36116 2.42766 1.36122C2.42779 1.36128 2.42792 1.36134 2.42806 1.3614C2.42819 1.36146 2.42833 1.36152 2.42846 1.36158C2.4286 1.36164 2.42873 1.3617 2.42886 1.36176C2.429 1.36182 2.42913 1.36187 2.42927 1.36193C2.4294 1.36199 2.42954 1.36205 2.42967 1.36211C2.4298 1.36217 2.42994 1.36223 2.43007 1.36229C2.43021 1.36235 2.43034 1.36241 2.43047 1.36247C2.43061 1.36253 2.43074 1.36259 2.43088 1.36265C2.43101 1.36271 2.43115 1.36277 2.43128 1.36283C2.43141 1.36289 2.43155 1.36295 2.43168 1.36301C2.43182 1.36307 2.43195 1.36313 2.43209 1.36319C2.43222 1.36325 2.43235 1.36331 2.43249 1.36337C2.43262 1.36343 2.43276 1.36349 2.43289 1.36355C2.43303 1.36361 2.43316 1.36366 2.43329 1.36372C2.43343 1.36378 2.43356 1.36384 2.4337 1.3639C2.43383 1.36396 2.43397 1.36402 2.4341 1.36408C2.43423 1.36414 2.43437 1.3642 2.4345 1.36426C2.43464 1.36432 2.43477 1.36438 2.43491 1.36444C2.43504 1.3645 2.43517 1.36456 2.43531 1.36462C2.43544 1.36468 2.43558 1.36474 2.43571 1.3648C2.43585 1.36486 2.43598 1.36492 2.43611 1.36498C2.43625 1.36504 2.43638 1.3651 2.43652 1.36516C2.43665 1.36522 2.43679 1.36528 2.43692 1.36534C2.43705 1.3654 2.43719 1.36546 2.43732 1.36551C2.43746 1.36557 2.43759 1.36563 2.43773 1.36569C2.43786 1.36575 2.43799 1.36581 2.43813 1.36587C2.43826 1.36593 2.4384 1.36599 2.43853 1.36605C2.43867 1.36611 2.4388 1.36617 2.43893 1.36623C2.43907 1.36629 2.4392 1.36635 2.43934 1.36641C2.43947 1.36647 2.43961 1.36653 2.43974 1.36659C2.43987 1.36665 2.44001 1.36671 2.44014 1.36677C2.44028 1.36683 2.44041 1.36689 2.44054 1.36695C2.44068 1.36701 2.44081 1.36707 2.44095 1.36713C2.44108 1.36719 2.44122 1.36725 2.44135 1.36731C2.44148 1.36736 2.44162 1.36742 2.44175 1.36748C2.44189 1.36754 2.44202 1.3676 2.44216 1.36766C2.44229 1.36772 2.44242 1.36778 2.44256 1.36784C2.44269 1.3679 2.44283 1.36796 2.44296 1.36802C2.4431 1.36808 2.44323 1.36814 2.44336 1.3682C2.4435 1.36826 2.44363 1.36832 2.44377 1.36838C2.4439 1.36844 2.44404 1.3685 2.44417 1.36856C2.4443 1.36862 2.44444 1.36868 2.44457 1.36874C2.44471 1.3688 2.44484 1.36886 2.44498 1.36892C2.44511 1.36898 2.44524 1.36904 2.44538 1.3691C2.44551 1.36915 2.44565 1.36921 2.44578 1.36927C2.44592 1.36933 2.44605 1.36939 2.44618 1.36945C2.44632 1.36951 2.44645 1.36957 2.44659 1.36963C2.44672 1.36969 2.44686 1.36975 2.44699 1.36981C2.44712 1.36987 2.44726 1.36993 2.44739 1.36999C2.44753 1.37005 2.44766 1.37011 2.4478 1.37017C2.44793 1.37023 2.44806 1.37029 2.4482 1.37035C2.44833 1.37041 2.44847 1.37047 2.4486 1.37053C2.44874 1.37059 2.44887 1.37065 2.449 1.37071C2.44914 1.37077 2.44927 1.37083 2.44941 1.37089C2.44954 1.37095 2.44967 1.371 2.44981 1.37106C2.44994 1.37112 2.45008 1.37118 2.45021 1.37124C2.45035 1.3713 2.45048 1.37136 2.45061 1.37142C2.45075 1.37148 2.45088 1.37154 2.45102 1.3716C2.45115 1.37166 2.45129 1.37172 2.45142 1.37178C2.45155 1.37184 2.45169 1.3719 2.45182 1.37196C2.45196 1.37202 2.45209 1.37208 2.45223 1.37214C2.45236 1.3722 2.45249 1.37226 2.45263 1.37232C2.45276 1.37238 2.4529 1.37244 2.45303 1.3725C2.45317 1.37256 2.4533 1.37262 2.45343 1.37268C2.45357 1.37274 2.4537 1.3728 2.45384 1.37285C2.45397 1.37291 2.45411 1.37297 2.45424 1.37303C2.45437 1.37309 2.45451 1.37315 2.45464 1.37321C2.45478 1.37327 2.45491 1.37333 2.45505 1.37339C2.45518 1.37345 2.45531 1.37351 2.45545 1.37357C2.45558 1.37363 2.45572 1.37369 2.45585 1.37375C2.45599 1.37381 2.45612 1.37387 2.45625 1.37393C2.45639 1.37399 2.45652 1.37405 2.45666 1.37411C2.45679 1.37417 2.45693 1.37423 2.45706 1.37429C2.45719 1.37435 2.45733 1.37441 2.45746 1.37447C2.4576 1.37453 2.45773 1.37459 2.45787 1.37464C2.458 1.3747 2.45813 1.37476 2.45827 1.37482C2.4584 1.37488 2.45854 1.37494 2.45867 1.375C2.45881 1.37506 2.45894 1.37512 2.45907 1.37518C2.45921 1.37524 2.45934 1.3753 2.45948 1.37536C2.45961 1.37542 2.45974 1.37548 2.45988 1.37554C2.46001 1.3756 2.46015 1.37566 2.46028 1.37572C2.46042 1.37578 2.46055 1.37584 2.46068 1.3759C2.46082 1.37596 2.46095 1.37602 2.46109 1.37608C2.46122 1.37614 2.46136 1.3762 2.46149 1.37626C2.46162 1.37632 2.46176 1.37638 2.46189 1.37644C2.46203 1.37649 2.46216 1.37655 2.4623 1.37661C2.46243 1.37667 2.46256 1.37673 2.4627 1.37679C2.46283 1.37685 2.46297 1.37691 2.4631 1.37697C2.46324 1.37703 2.46337 1.37709 2.4635 1.37715C2.46364 1.37721 2.46377 1.37727 2.46391 1.37733C2.46404 1.37739 2.46418 1.37745 2.46431 1.37751C2.46444 1.37757 2.46458 1.37763 2.46471 1.37769C2.46485 1.37775 2.46498 1.37781 2.46512 1.37787C2.46525 1.37793 2.46538 1.37799 2.46552 1.37805C2.46565 1.37811 2.46579 1.37817 2.46592 1.37823C2.46606 1.37828 2.46619 1.37834 2.46632 1.3784C2.46646 1.37846 2.46659 1.37852 2.46673 1.37858C2.46686 1.37864 2.467 1.3787 2.46713 1.37876C2.46726 1.37882 2.4674 1.37888 2.46753 1.37894C2.46767 1.379 2.4678 1.37906 2.46794 1.37912C2.46807 1.37918 2.4682 1.37924 2.46834 1.3793C2.46847 1.37936 2.46861 1.37942 2.46874 1.37948C2.46888 1.37954 2.46901 1.3796 2.46914 1.37966C2.46928 1.37972 2.46941 1.37978 2.46955 1.37984C2.46968 1.3799 2.46981 1.37996 2.46995 1.38002C2.47008 1.38008 2.47022 1.38013 2.47035 1.38019C2.47049 1.38025 2.47062 1.38031 2.47075 1.38037C2.47089 1.38043 2.47102 1.38049 2.47116 1.38055C2.47129 1.38061 2.47143 1.38067 2.47156 1.38073C2.47169 1.38079 2.47183 1.38085 2.47196 1.38091C2.4721 1.38097 2.47223 1.38103 2.47237 1.38109C2.4725 1.38115 2.47263 1.38121 2.47277 1.38127C2.4729 1.38133 2.47304 1.38139 2.47317 1.38145C2.47331 1.38151 2.47344 1.38157 2.47357 1.38163C2.47371 1.38169 2.47384 1.38175 2.47398 1.38181C2.47411 1.38187 2.47425 1.38193 2.47438 1.38198C2.47451 1.38204 2.47465 1.3821 2.47478 1.38216C2.47492 1.38222 2.47505 1.38228 2.47519 1.38234C2.47532 1.3824 2.47545 1.38246 2.47559 1.38252C2.47572 1.38258 2.47586 1.38264 2.47599 1.3827C2.47613 1.38276 2.47626 1.38282 2.47639 1.38288C2.47653 1.38294 2.47666 1.383 2.4768 1.38306C2.47693 1.38312 2.47707 1.38318 2.4772 1.38324C2.47733 1.3833 2.47747 1.38336 2.4776 1.38342C2.47774 1.38348 2.47787 1.38354 2.47801 1.3836C2.47814 1.38366 2.47827 1.38372 2.47841 1.38377C2.47854 1.38383 2.47868 1.38389 2.47881 1.38395C2.47894 1.38401 2.47908 1.38407 2.47921 1.38413C2.47935 1.38419 2.47948 1.38425 2.47962 1.38431C2.47975 1.38437 2.47988 1.38443 2.48002 1.38449C2.48015 1.38455 2.48029 1.38461 2.48042 1.38467C2.48056 1.38473 2.48069 1.38479 2.48082 1.38485C2.48096 1.38491 2.48109 1.38497 2.48123 1.38503C2.48136 1.38509 2.4815 1.38515 2.48163 1.38521C2.48176 1.38527 2.4819 1.38533 2.48203 1.38539C2.48217 1.38545 2.4823 1.38551 2.48244 1.38557C2.48257 1.38562 2.4827 1.38568 2.48284 1.38574C2.48297 1.3858 2.48311 1.38586 2.48324 1.38592C2.48338 1.38598 2.48351 1.38604 2.48364 1.3861C2.48378 1.38616 2.48391 1.38622 2.48405 1.38628C2.48418 1.38634 2.48432 1.3864 2.48445 1.38646C2.48458 1.38652 2.48472 1.38658 2.48485 1.38664C2.48499 1.3867 2.48512 1.38676 2.48526 1.38682C2.48539 1.38688 2.48552 1.38694 2.48566 1.387C2.48579 1.38706 2.48593 1.38712 2.48606 1.38718C2.4862 1.38724 2.48633 1.3873 2.48646 1.38736C2.4866 1.38742 2.48673 1.38747 2.48687 1.38753C2.487 1.38759 2.48714 1.38765 2.48727 1.38771C2.4874 1.38777 2.48754 1.38783 2.48767 1.38789C2.48781 1.38795 2.48794 1.38801 2.48808 1.38807C2.48821 1.38813 2.48834 1.38819 2.48848 1.38825C2.48861 1.38831 2.48875 1.38837 2.48888 1.38843C2.48901 1.38849 2.48915 1.38855 2.48928 1.38861C2.48942 1.38867 2.48955 1.38873 2.48969 1.38879C2.48982 1.38885 2.48995 1.38891 2.49009 1.38897C2.49022 1.38903 2.49036 1.38909 2.49049 1.38915C2.49063 1.38921 2.49076 1.38926 2.49089 1.38932C2.49103 1.38938 2.49116 1.38944 2.4913 1.3895C2.49143 1.38956 2.49157 1.38962 2.4917 1.38968C2.49183 1.38974 2.49197 1.3898 2.4921 1.38986C2.49224 1.38992 2.49237 1.38998 2.49251 1.39004C2.49264 1.3901 2.49277 1.39016 2.49291 1.39022C2.49304 1.39028 2.49318 1.39034 2.49331 1.3904C2.49345 1.39046 2.49358 1.39052 2.49371 1.39058C2.49385 1.39064 2.49398 1.3907 2.49412 1.39076C2.49425 1.39082 2.49439 1.39088 2.49452 1.39094C2.49465 1.391 2.49479 1.39106 2.49492 1.39111C2.49506 1.39117 2.49519 1.39123 2.49533 1.39129C2.49546 1.39135 2.49559 1.39141 2.49573 1.39147C2.49586 1.39153 2.496 1.39159 2.49613 1.39165C2.49627 1.39171 2.4964 1.39177 2.49653 1.39183C2.49667 1.39189 2.4968 1.39195 2.49694 1.39201C2.49707 1.39207 2.49721 1.39213 2.49734 1.39219C2.49747 1.39225 2.49761 1.39231 2.49774 1.39237C2.49788 1.39243 2.49801 1.39249 2.49814 1.39255C2.49828 1.39261 2.49841 1.39267 2.49855 1.39273C2.49868 1.39279 2.49882 1.39285 2.49895 1.39291C2.49908 1.39296 2.49922 1.39302 2.49935 1.39308C2.49949 1.39314 2.49962 1.3932 2.49976 1.39326C2.49989 1.39332 2.50002 1.39338 2.50016 1.39344C2.50029 1.3935 2.50043 1.39356 2.50056 1.39362C2.5007 1.39368 2.50083 1.39374 2.50096 1.3938C2.5011 1.39386 2.50123 1.39392 2.50137 1.39398C2.5015 1.39404 2.50164 1.3941 2.50177 1.39416C2.5019 1.39422 2.50204 1.39428 2.50217 1.39434C2.50231 1.3944 2.50244 1.39446 2.50258 1.39452C2.50271 1.39458 2.50284 1.39464 2.50298 1.3947C2.50311 1.39475 2.50325 1.39481 2.50338 1.39487C2.50352 1.39493 2.50365 1.39499 2.50378 1.39505C2.50392 1.39511 2.50405 1.39517 2.50419 1.39523C2.50432 1.39529 2.50446 1.39535 2.50459 1.39541C2.50472 1.39547 2.50486 1.39553 2.50499 1.39559C2.50513 1.39565 2.50526 1.39571 2.5054 1.39577C2.50553 1.39583 2.50566 1.39589 2.5058 1.39595C2.50593 1.39601 2.50607 1.39607 2.5062 1.39613C2.50634 1.39619 2.50647 1.39625 2.5066 1.39631C2.50674 1.39637 2.50687 1.39643 2.50701 1.39649C2.50714 1.39655 2.50727 1.3966 2.50741 1.39666C2.50754 1.39672 2.50768 1.39678 2.50781 1.39684C2.50795 1.3969 2.50808 1.39696 2.50821 1.39702C2.50835 1.39708 2.50848 1.39714 2.50862 1.3972C2.50875 1.39726 2.50889 1.39732 2.50902 1.39738C2.50915 1.39744 2.50929 1.3975 2.50942 1.39756C2.50956 1.39762 2.50969 1.39768 2.50983 1.39774C2.50996 1.3978 2.51009 1.39786 2.51023 1.39792C2.51036 1.39798 2.5105 1.39804 2.51063 1.3981C2.51077 1.39816 2.5109 1.39822 2.51103 1.39828C2.51117 1.39834 2.5113 1.3984 2.51144 1.39845C2.51157 1.39851 2.51171 1.39857 2.51184 1.39863C2.51197 1.39869 2.51211 1.39875 2.51224 1.39881C2.51238 1.39887 2.51251 1.39893 2.51265 1.39899C2.51278 1.39905 2.51291 1.39911 2.51305 1.39917C2.51318 1.39923 2.51332 1.39929 2.51345 1.39935C2.51359 1.39941 2.51372 1.39947 2.51385 1.39953C2.51399 1.39959 2.51412 1.39965 2.51426 1.39971C2.51439 1.39977 2.51453 1.39983 2.51466 1.39989C2.51479 1.39995 2.51493 1.40001 2.51506 1.40007C2.5152 1.40013 2.51533 1.40019 2.51547 1.40024C2.5156 1.4003 2.51573 1.40036 2.51587 1.40042C2.516 1.40048 2.51614 1.40054 2.51627 1.4006C2.51641 1.40066 2.51654 1.40072 2.51667 1.40078C2.51681 1.40084 2.51694 1.4009 2.51708 1.40096C2.51721 1.40102 2.51734 1.40108 2.51748 1.40114C2.51761 1.4012 2.51775 1.40126 2.51788 1.40132C2.51802 1.40138 2.51815 1.40144 2.51828 1.4015C2.51842 1.40156 2.51855 1.40162 2.51869 1.40168C2.51882 1.40174 2.51896 1.4018 2.51909 1.40186C2.51922 1.40192 2.51936 1.40198 2.51949 1.40204C2.51963 1.40209 2.51976 1.40215 2.5199 1.40221C2.52003 1.40227 2.52016 1.40233 2.5203 1.40239C2.52043 1.40245 2.52057 1.40251 2.5207 1.40257C2.52084 1.40263 2.52097 1.40269 2.5211 1.40275C2.52124 1.40281 2.52137 1.40287 2.52151 1.40293C2.52164 1.40299 2.52178 1.40305 2.52191 1.40311C2.52204 1.40317 2.52218 1.40323 2.52231 1.40329C2.52245 1.40335 2.52258 1.40341 2.52272 1.40347C2.52285 1.40353 2.52298 1.40359 2.52312 1.40365C2.52325 1.40371 2.52339 1.40377 2.52352 1.40383C2.52366 1.40388 2.52379 1.40394 2.52392 1.404C2.52406 1.40406 2.52419 1.40412 2.52433 1.40418C2.52446 1.40424 2.5246 1.4043 2.52473 1.40436C2.52486 1.40442 2.525 1.40448 2.52513 1.40454C2.52527 1.4046 2.5254 1.40466 2.52554 1.40472C2.52567 1.40478 2.5258 1.40484 2.52594 1.4049C2.52607 1.40496 2.52621 1.40502 2.52634 1.40508C2.52647 1.40514 2.52661 1.4052 2.52674 1.40526C2.52688 1.40532 2.52701 1.40538 2.52715 1.40544C2.52728 1.4055 2.52741 1.40556 2.52755 1.40562C2.52768 1.40568 2.52782 1.40573 2.52795 1.40579C2.52809 1.40585 2.52822 1.40591 2.52835 1.40597C2.52849 1.40603 2.52862 1.40609 2.52876 1.40615C2.52889 1.40621 2.52903 1.40627 2.52916 1.40633C2.52929 1.40639 2.52943 1.40645 2.52956 1.40651C2.5297 1.40657 2.52983 1.40663 2.52997 1.40669C2.5301 1.40675 2.53023 1.40681 2.53037 1.40687C2.5305 1.40693 2.53064 1.40699 2.53077 1.40705C2.53091 1.40711 2.53104 1.40717 2.53117 1.40723C2.53131 1.40729 2.53144 1.40735 2.53158 1.40741C2.53171 1.40747 2.53185 1.40753 2.53198 1.40758C2.53211 1.40764 2.53225 1.4077 2.53238 1.40776C2.53252 1.40782 2.53265 1.40788 2.53279 1.40794C2.53292 1.408 2.53305 1.40806 2.53319 1.40812C2.53332 1.40818 2.53346 1.40824 2.53359 1.4083C2.53373 1.40836 2.53386 1.40842 2.53399 1.40848C2.53413 1.40854 2.53426 1.4086 2.5344 1.40866C2.53453 1.40872 2.53467 1.40878 2.5348 1.40884C2.53493 1.4089 2.53507 1.40896 2.5352 1.40902C2.53534 1.40908 2.53547 1.40914 2.53561 1.4092C2.53574 1.40926 2.53587 1.40932 2.53601 1.40937C2.53614 1.40943 2.53628 1.40949 2.53641 1.40955C2.53654 1.40961 2.53668 1.40967 2.53681 1.40973C2.53695 1.40979 2.53708 1.40985 2.53722 1.40991C2.53735 1.40997 2.53748 1.41003 2.53762 1.41009C2.53775 1.41015 2.53789 1.41021 2.53802 1.41027C2.53816 1.41033 2.53829 1.41039 2.53842 1.41045C2.53856 1.41051 2.53869 1.41057 2.53883 1.41063C2.53896 1.41069 2.5391 1.41075 2.53923 1.41081C2.53936 1.41087 2.5395 1.41093 2.53963 1.41099C2.53977 1.41105 2.5399 1.41111 2.54004 1.41117C2.54017 1.41122 2.5403 1.41128 2.54044 1.41134C2.54057 1.4114 2.54071 1.41146 2.54084 1.41152C2.54098 1.41158 2.54111 1.41164 2.54124 1.4117C2.54138 1.41176 2.54151 1.41182 2.54165 1.41188C2.54178 1.41194 2.54192 1.412 2.54205 1.41206C2.54218 1.41212 2.54232 1.41218 2.54245 1.41224C2.54259 1.4123 2.54272 1.41236 2.54286 1.41242C2.54299 1.41248 2.54312 1.41254 2.54326 1.4126C2.54339 1.41266 2.54353 1.41272 2.54366 1.41278C2.5438 1.41284 2.54393 1.4129 2.54406 1.41296C2.5442 1.41302 2.54433 1.41307 2.54447 1.41313C2.5446 1.41319 2.54474 1.41325 2.54487 1.41331C2.545 1.41337 2.54514 1.41343 2.54527 1.41349C2.54541 1.41355 2.54554 1.41361 2.54568 1.41367C2.54581 1.41373 2.54594 1.41379 2.54608 1.41385C2.54621 1.41391 2.54635 1.41397 2.54648 1.41403C2.54661 1.41409 2.54675 1.41415 2.54688 1.41421C2.54702 1.41427 2.54715 1.41433 2.54729 1.41439C2.54742 1.41445 2.54755 1.41451 2.54769 1.41457C2.54782 1.41463 2.54796 1.41469 2.54809 1.41475C2.54823 1.41481 2.54836 1.41486 2.54849 1.41492C2.54863 1.41498 2.54876 1.41504 2.5489 1.4151C2.54903 1.41516 2.54917 1.41522 2.5493 1.41528C2.54943 1.41534 2.54957 1.4154 2.5497 1.41546C2.54984 1.41552 2.54997 1.41558 2.55011 1.41564C2.55024 1.4157 2.55037 1.41576 2.55051 1.41582C2.55064 1.41588 2.55078 1.41594 2.55091 1.416C2.55105 1.41606 2.55118 1.41612 2.55131 1.41618C2.55145 1.41624 2.55158 1.4163 2.55172 1.41636C2.55185 1.41642 2.55199 1.41648 2.55212 1.41654C2.55225 1.4166 2.55239 1.41666 2.55252 1.41671C2.55266 1.41677 2.55279 1.41683 2.55293 1.41689C2.55306 1.41695 2.55319 1.41701 2.55333 1.41707C2.55346 1.41713 2.5536 1.41719 2.55373 1.41725C2.55387 1.41731 2.554 1.41737 2.55413 1.41743C2.55427 1.41749 2.5544 1.41755 2.55454 1.41761C2.55467 1.41767 2.55481 1.41773 2.55494 1.41779C2.55507 1.41785 2.55521 1.41791 2.55534 1.41797C2.55548 1.41803 2.55561 1.41809 2.55574 1.41815C2.55588 1.41821 2.55601 1.41827 2.55615 1.41833C2.55628 1.41839 2.55642 1.41845 2.55655 1.41851C2.55668 1.41856 2.55682 1.41862 2.55695 1.41868C2.55709 1.41874 2.55722 1.4188 2.55736 1.41886C2.55749 1.41892 2.55762 1.41898 2.55776 1.41904C2.55789 1.4191 2.55803 1.41916 2.55816 1.41922C2.5583 1.41928 2.55843 1.41934 2.55856 1.4194C2.5587 1.41946 2.55883 1.41952 2.55897 1.41958C2.5591 1.41964 2.55924 1.4197 2.55937 1.41976C2.5595 1.41982 2.55964 1.41988 2.55977 1.41994C2.55991 1.42 2.56004 1.42006 2.56018 1.42012C2.56031 1.42018 2.56044 1.42024 2.56058 1.4203C2.56071 1.42035 2.56085 1.42041 2.56098 1.42047C2.56112 1.42053 2.56125 1.42059 2.56138 1.42065C2.56152 1.42071 2.56165 1.42077 2.56179 1.42083C2.56192 1.42089 2.56206 1.42095 2.56219 1.42101C2.56232 1.42107 2.56246 1.42113 2.56259 1.42119C2.56273 1.42125 2.56286 1.42131 2.563 1.42137C2.56313 1.42143 2.56326 1.42149 2.5634 1.42155C2.56353 1.42161 2.56367 1.42167 2.5638 1.42173C2.56394 1.42179 2.56407 1.42185 2.5642 1.42191C2.56434 1.42197 2.56447 1.42203 2.56461 1.42209C2.56474 1.42215 2.56488 1.4222 2.56501 1.42226C2.56514 1.42232 2.56528 1.42238 2.56541 1.42244C2.56555 1.4225 2.56568 1.42256 2.56581 1.42262C2.56595 1.42268 2.56608 1.42274 2.56622 1.4228C2.56635 1.42286 2.56649 1.42292 2.56662 1.42298C2.56675 1.42304 2.56689 1.4231 2.56702 1.42316C2.56716 1.42322 2.56729 1.42328 2.56743 1.42334C2.56756 1.4234 2.56769 1.42346 2.56783 1.42352C2.56796 1.42358 2.5681 1.42364 2.56823 1.4237C2.56837 1.42376 2.5685 1.42382 2.56863 1.42388C2.56877 1.42394 2.5689 1.424 2.56904 1.42405C2.56917 1.42411 2.56931 1.42417 2.56944 1.42423C2.56957 1.42429 2.56971 1.42435 2.56984 1.42441C2.56998 1.42447 2.57011 1.42453 2.57025 1.42459C2.57038 1.42465 2.57051 1.42471 2.57065 1.42477C2.57078 1.42483 2.57092 1.42489 2.57105 1.42495C2.57119 1.42501 2.57132 1.42507 2.57145 1.42513C2.57159 1.42519 2.57172 1.42525 2.57186 1.42531C2.57199 1.42537 2.57213 1.42543 2.57226 1.42549C2.57239 1.42555 2.57253 1.42561 2.57266 1.42567C2.5728 1.42573 2.57293 1.42579 2.57307 1.42584C2.5732 1.4259 2.57333 1.42596 2.57347 1.42602C2.5736 1.42608 2.57374 1.42614 2.57387 1.4262C2.57401 1.42626 2.57414 1.42632 2.57427 1.42638C2.57441 1.42644 2.57454 1.4265 2.57468 1.42656C2.57481 1.42662 2.57494 1.42668 2.57508 1.42674C2.57521 1.4268 2.57535 1.42686 2.57548 1.42692C2.57562 1.42698 2.57575 1.42704 2.57588 1.4271C2.57602 1.42716 2.57615 1.42722 2.57629 1.42728C2.57642 1.42734 2.57656 1.4274 2.57669 1.42746C2.57682 1.42752 2.57696 1.42758 2.57709 1.42764C2.57723 1.42769 2.57736 1.42775 2.5775 1.42781C2.57763 1.42787 2.57776 1.42793 2.5779 1.42799C2.57803 1.42805 2.57817 1.42811 2.5783 1.42817C2.57844 1.42823 2.57857 1.42829 2.5787 1.42835C2.57884 1.42841 2.57897 1.42847 2.57911 1.42853C2.57924 1.42859 2.57938 1.42865 2.57951 1.42871C2.57964 1.42877 2.57978 1.42883 2.57991 1.42889C2.58005 1.42895 2.58018 1.42901 2.58032 1.42907C2.58045 1.42913 2.58058 1.42919 2.58072 1.42925C2.58085 1.42931 2.58099 1.42937 2.58112 1.42943C2.58126 1.42948 2.58139 1.42954 2.58152 1.4296C2.58166 1.42966 2.58179 1.42972 2.58193 1.42978C2.58206 1.42984 2.5822 1.4299 2.58233 1.42996C2.58246 1.43002 2.5826 1.43008 2.58273 1.43014C2.58287 1.4302 2.583 1.43026 2.58314 1.43032C2.58327 1.43038 2.5834 1.43044 2.58354 1.4305C2.58367 1.43056 2.58381 1.43062 2.58394 1.43068C2.58407 1.43074 2.58421 1.4308 2.58434 1.43086C2.58448 1.43092 2.58461 1.43098 2.58475 1.43104C2.58488 1.4311 2.58501 1.43116 2.58515 1.43122C2.58528 1.43128 2.58542 1.43133 2.58555 1.43139C2.58569 1.43145 2.58582 1.43151 2.58595 1.43157C2.58609 1.43163 2.58622 1.43169 2.58636 1.43175C2.58649 1.43181 2.58663 1.43187 2.58676 1.43193C2.58689 1.43199 2.58703 1.43205 2.58716 1.43211C2.5873 1.43217 2.58743 1.43223 2.58757 1.43229C2.5877 1.43235 2.58783 1.43241 2.58797 1.43247C2.5881 1.43253 2.58824 1.43259 2.58837 1.43265C2.58851 1.43271 2.58864 1.43277 2.58877 1.43283C2.58891 1.43289 2.58904 1.43295 2.58918 1.43301C2.58931 1.43307 2.58945 1.43313 2.58958 1.43318C2.58971 1.43324 2.58985 1.4333 2.58998 1.43336C2.59012 1.43342 2.59025 1.43348 2.59039 1.43354C2.59052 1.4336 2.59065 1.43366 2.59079 1.43372C2.59092 1.43378 2.59106 1.43384 2.59119 1.4339C2.59133 1.43396 2.59146 1.43402 2.59159 1.43408C2.59173 1.43414 2.59186 1.4342 2.592 1.43426C2.59213 1.43432 2.59227 1.43438 2.5924 1.43444C2.59253 1.4345 2.59267 1.43456 2.5928 1.43462C2.59294 1.43468 2.59307 1.43474 2.59321 1.4348C2.59334 1.43486 2.59347 1.43492 2.59361 1.43497C2.59374 1.43503 2.59388 1.43509 2.59401 1.43515C2.59414 1.43521 2.59428 1.43527 2.59441 1.43533C2.59455 1.43539 2.59468 1.43545 2.59482 1.43551C2.59495 1.43557 2.59508 1.43563 2.59522 1.43569C2.59535 1.43575 2.59549 1.43581 2.59562 1.43587C2.59576 1.43593 2.59589 1.43599 2.59602 1.43605C2.59616 1.43611 2.59629 1.43617 2.59643 1.43623C2.59656 1.43629 2.5967 1.43635 2.59683 1.43641C2.59696 1.43647 2.5971 1.43653 2.59723 1.43659C2.59737 1.43665 2.5975 1.43671 2.59764 1.43677C2.59777 1.43682 2.5979 1.43688 2.59804 1.43694C2.59817 1.437 2.59831 1.43706 2.59844 1.43712C2.59858 1.43718 2.59871 1.43724 2.59884 1.4373C2.59898 1.43736 2.59911 1.43742 2.59925 1.43748C2.59938 1.43754 2.59952 1.4376 2.59965 1.43766C2.59978 1.43772 2.59992 1.43778 2.60005 1.43784C2.60019 1.4379 2.60032 1.43796 2.60046 1.43802C2.60059 1.43808 2.60072 1.43814 2.60086 1.4382C2.60099 1.43826 2.60113 1.43832 2.60126 1.43838C2.6014 1.43844 2.60153 1.4385 2.60166 1.43856C2.6018 1.43862 2.60193 1.43867 2.60207 1.43873C2.6022 1.43879 2.60234 1.43885 2.60247 1.43891C2.6026 1.43897 2.60274 1.43903 2.60287 1.43909C2.60301 1.43915 2.60314 1.43921 2.60328 1.43927C2.60341 1.43933 2.60354 1.43939 2.60368 1.43945L2.72674 1.16255ZM2.52051 1.07089C2.43424 1.03255 2.34462 1.01201 2.25275 1.01201V1.31502C2.29836 1.31502 2.34623 1.32503 2.39745 1.34779L2.52051 1.07089ZM2.25275 1.01201C2.17268 1.01201 2.09292 1.02091 2.01365 1.03853L2.07938 1.33433C2.1376 1.32139 2.19532 1.31502 2.25275 1.31502V1.01201ZM2.01365 1.03853C1.91317 1.06086 1.82192 1.11461 1.73963 1.18776L1.94094 1.41424C1.99613 1.36518 2.04237 1.34255 2.07938 1.33433L2.01365 1.03853ZM1.72411 1.20374L1.31165 1.69641L1.54399 1.89093L1.95645 1.39826L1.72411 1.20374ZM1.30773 1.70129C1.22721 1.80596 1.15463 1.91482 1.09004 2.02785L1.35313 2.17818C1.41076 2.07734 1.47566 1.97997 1.54791 1.88604L1.30773 1.70129ZM1.09255 2.02361C1.02607 2.13165 0.971791 2.24428 0.929959 2.36141L1.21532 2.46332C1.24987 2.36658 1.29489 2.27298 1.35062 2.18242L1.09255 2.02361ZM0.927833 2.36781C0.89696 2.46814 0.866117 2.57224 0.835303 2.68009L1.12666 2.76333C1.15695 2.65731 1.18721 2.55518 1.21745 2.45692L0.927833 2.36781ZM0.832837 2.68997C0.808637 2.8029 0.792297 2.91276 0.784091 3.01944L1.08621 3.04268C1.09328 2.95077 1.1075 2.85439 1.12913 2.75346L0.832837 2.68997ZM0.784835 3.0121C0.673517 3.8947 0.853602 4.79568 1.31545 5.71155L1.58601 5.57512C1.14655 4.70364 0.982916 3.86311 1.08547 3.05002L0.784835 3.0121ZM1.31545 5.71155C1.77622 6.62528 2.56373 7.63512 3.66944 8.74083L3.8837 8.52657C2.78961 7.43248 2.02656 6.44873 1.58601 5.57512L1.31545 5.71155ZM3.67389 8.7451C5.04602 10.0099 6.23315 10.8251 7.23292 11.1714L7.33212 10.8851C6.39178 10.5593 5.24161 9.7781 3.87926 8.5223L3.67389 8.7451ZM7.23292 11.1714C7.7208 11.3405 8.13158 11.4628 8.46395 11.5371C8.79213 11.6104 9.05875 11.6406 9.25121 11.6137L9.20933 11.3136C9.07334 11.3326 8.85111 11.3131 8.53005 11.2413C8.21317 11.1705 7.81429 11.0522 7.33212 10.8851L7.23292 11.1714Z" fill="#1D234E" mask="url(#path-1-outside-1_1_794)"/>
</svg>
