<svg width="24" height="25" viewBox="0 0 24 25" fill="none" xmlns="http://www.w3.org/2000/svg">
<g clip-path="url(#clip0_1_14036)">
<g clip-path="url(#clip1_1_14036)">
<path d="M16.0344 7.54453C16.187 7.50363 16.3497 7.52563 16.4854 7.60557C16.6218 7.6835 16.7212 7.8123 16.7617 7.96354C16.8022 8.11479 16.7806 8.27604 16.7014 8.41171L12.2138 16.152C12.1358 16.2886 12.006 16.3885 11.8535 16.4294C11.701 16.4702 11.5387 16.4486 11.4027 16.3693L6.55512 13.5826C6.36476 13.4807 6.24531 13.2839 6.24319 13.0687C6.24107 12.8534 6.35662 12.6536 6.54493 12.5469C6.73325 12.4402 6.96464 12.4434 7.14921 12.5553L11.4832 15.0476L15.6743 7.8229C15.7519 7.68579 15.8817 7.58544 16.0344 7.54453Z" fill="#3CBA58"/>
<path fill-rule="evenodd" clip-rule="evenodd" d="M22 12.3906C22 17.9135 17.5228 22.3906 12 22.3906C6.47715 22.3906 2 17.9135 2 12.3906C2 6.86778 6.47715 2.39062 12 2.39062C17.5228 2.39062 22 6.86778 22 12.3906ZM20.625 12.3906C20.625 17.1541 16.7635 21.0156 12 21.0156C7.23654 21.0156 3.375 17.1541 3.375 12.3906C3.375 7.62717 7.23654 3.76562 12 3.76562C16.7635 3.76562 20.625 7.62717 20.625 12.3906Z" fill="#3CBA58"/>
</g>
</g>
<defs>
<clipPath id="clip0_1_14036">
<rect width="24" height="24" fill="white" transform="translate(0 0.390625)"/>
</clipPath>
<clipPath id="clip1_1_14036">
<rect width="24" height="24" fill="white" transform="translate(0 0.390625)"/>
</clipPath>
</defs>
</svg>
