<svg width="21" height="20" viewBox="0 0 21 20" fill="none" xmlns="http://www.w3.org/2000/svg">
<path d="M1.97271 5.59351C2.79523 3.95565 4.05704 2.57881 5.6171 1.61686C7.17715 0.654921 8.97399 0.145785 10.8068 0.146363C13.471 0.146363 15.7092 1.12507 17.4205 2.72165L14.5862 5.55693C13.561 4.57724 12.258 4.078 10.8068 4.078C8.2315 4.078 6.05165 5.81792 5.2756 8.15397C5.07789 8.74712 4.96519 9.37982 4.96519 10.0323C4.96519 10.6848 5.07789 11.3175 5.2756 11.9106C6.05264 14.2477 8.2315 15.9866 10.8068 15.9866C12.1364 15.9866 13.2684 15.6356 14.1542 15.0425C14.6676 14.7043 15.1072 14.2656 15.4464 13.7528C15.7855 13.24 16.0172 12.6638 16.1274 12.0589H10.8068V8.23503H20.1174C20.234 8.88157 20.2973 9.55579 20.2973 10.2567C20.2973 13.268 19.2197 15.8027 17.3493 17.5229C15.7142 19.0334 13.476 19.9182 10.8068 19.9182C9.11972 19.9189 7.46058 19.4877 5.9873 18.6658C4.51402 17.8438 3.27565 16.6584 2.3901 15.2225C1.50454 13.7865 1.00128 12.1478 0.928219 10.4623C0.85516 8.77683 1.21474 7.10071 1.97271 5.59351Z" fill="#191C1F"/>
</svg>
