<svg width="24" height="20" viewBox="0 0 24 20" fill="none" xmlns="http://www.w3.org/2000/svg">
<path d="M12 18.9993C17.25 15.4518 22.5 11.4993 22.5 6.2493C22.502 5.5593 22.3675 4.87572 22.1044 4.23787C21.8413 3.60002 21.4546 3.02048 20.9667 2.53257C20.4788 2.04467 19.8993 1.65804 19.2614 1.3949C18.6236 1.13176 17.94 0.997319 17.25 0.999299C15.9 0.999299 14.565 1.5093 13.5375 2.5368L12 4.0743L10.4625 2.5368C9.976 2.04744 9.39754 1.6591 8.76041 1.3941C8.12328 1.1291 7.44005 0.992676 6.75 0.992676C6.05996 0.992676 5.37673 1.1291 4.7396 1.3941C4.10247 1.6591 3.52401 2.04744 3.0375 2.5368C2.54934 3.02385 2.16222 3.60255 1.89837 4.23966C1.63452 4.87676 1.49914 5.55972 1.5 6.2493C1.5 11.4993 6.75 15.4518 12 18.9993Z" fill="#0666EB" stroke="white" stroke-width="1.5"/>
</svg>
