<svg width="14" height="14" viewBox="0 0 14 14" fill="none" xmlns="http://www.w3.org/2000/svg">
<path d="M12.4629 5.77246C12.4629 5.74902 12.4629 5.53809 12.4629 5.13965C12.4629 4.75293 12.4629 4.32812 12.4629 3.86523C12.4629 3.40234 12.4629 2.97754 12.4629 2.59082C12.4629 2.21582 12.4629 2.02832 12.4629 2.02832C12.4629 2.02832 12.1348 2.3623 11.4785 3.03027C10.8223 3.69824 10.0986 4.43652 9.30762 5.24512C8.5166 6.05371 7.78711 6.80371 7.11914 7.49512C6.43945 8.1748 6.08203 8.52637 6.04688 8.5498C5.98828 8.6084 5.8916 8.60547 5.75684 8.54102C5.62207 8.47656 5.50781 8.40332 5.41406 8.32129C5.33203 8.23926 5.25879 8.12793 5.19434 7.9873C5.12988 7.84668 5.12109 7.74121 5.16797 7.6709C5.19141 7.63574 5.54883 7.28418 6.24023 6.61621C6.91992 5.93652 7.66406 5.20117 8.47266 4.41016C9.28125 3.61914 10.0195 2.89551 10.6875 2.23926C11.3555 1.58301 11.6895 1.25488 11.6895 1.25488C11.6895 1.25488 11.502 1.25488 11.127 1.25488C10.752 1.25488 10.333 1.25488 9.87012 1.25488C9.40723 1.25488 8.97656 1.25488 8.57812 1.25488C8.19141 1.25488 7.98047 1.25488 7.94531 1.25488C7.88672 1.25488 7.83691 1.21387 7.7959 1.13184C7.75488 1.0498 7.73438 0.926758 7.73438 0.762695C7.72266 0.586914 7.7373 0.455078 7.77832 0.367188C7.81934 0.279297 7.875 0.235352 7.94531 0.235352C7.98047 0.235352 8.26172 0.235352 8.78906 0.235352C9.31641 0.235352 9.89062 0.235352 10.5117 0.235352C11.1328 0.235352 11.6953 0.235352 12.1992 0.235352C12.7148 0.235352 12.9727 0.235352 12.9727 0.235352C12.9727 0.235352 13.0137 0.241211 13.0957 0.25293C13.1777 0.264648 13.2598 0.305664 13.3418 0.375977C13.4121 0.458008 13.4561 0.542969 13.4736 0.630859C13.4912 0.71875 13.5 0.762695 13.5 0.762695C13.5 0.762695 13.5 1.02051 13.5 1.53613C13.5 2.04004 13.5 2.60254 13.5 3.22363C13.5 3.84473 13.5 4.41895 13.5 4.94629C13.5 5.47363 13.5 5.74902 13.5 5.77246C13.5 5.83105 13.4502 5.88379 13.3506 5.93066C13.251 5.97754 13.125 6.00098 12.9727 6.00098C12.832 6.00098 12.7148 5.97461 12.6211 5.92188C12.5273 5.86914 12.4746 5.81934 12.4629 5.77246ZM1.24805 13.7002C0.908203 13.7002 0.615234 13.5771 0.369141 13.3311C0.123047 13.085 0 12.792 0 12.4521V1.44824C0 1.1084 0.123047 0.81543 0.369141 0.569336C0.615234 0.323242 0.908203 0.200195 1.24805 0.200195C1.24805 0.200195 1.48242 0.200195 1.95117 0.200195C2.4082 0.200195 2.9209 0.200195 3.48926 0.200195C4.05762 0.200195 4.58789 0.200195 5.08008 0.200195C5.57227 0.200195 5.8418 0.200195 5.88867 0.200195C5.98242 0.200195 6.0498 0.273438 6.09082 0.419922C6.13184 0.566406 6.15234 0.686523 6.15234 0.780273C6.15234 0.874023 6.13184 0.991211 6.09082 1.13184C6.0498 1.27246 5.98242 1.34277 5.88867 1.34277C5.8418 1.34277 5.56641 1.34277 5.0625 1.34277C4.55859 1.34277 4.0166 1.34277 3.43652 1.34277C2.85645 1.34277 2.32617 1.34277 1.8457 1.34277C1.37695 1.34277 1.14258 1.34277 1.14258 1.34277V12.5576H12.3574C12.3574 12.5576 12.3574 12.3174 12.3574 11.8369C12.3574 11.3564 12.3574 10.8232 12.3574 10.2373C12.3574 9.65137 12.3574 9.10645 12.3574 8.60254C12.3574 8.11035 12.3574 7.84082 12.3574 7.79395C12.3574 7.72363 12.4307 7.66797 12.5771 7.62695C12.7236 7.58594 12.8438 7.56543 12.9375 7.56543C13.0312 7.56543 13.1455 7.58594 13.2803 7.62695C13.415 7.66797 13.4824 7.72363 13.4824 7.79395C13.4824 7.84082 13.4824 8.10449 13.4824 8.58496C13.4824 9.07715 13.4824 9.61035 13.4824 10.1846C13.4824 10.7588 13.4824 11.2803 13.4824 11.749C13.4824 12.2178 13.4824 12.4521 13.4824 12.4521C13.4824 12.792 13.3623 13.085 13.1221 13.3311C12.8818 13.5771 12.5859 13.7002 12.2344 13.7002H1.24805Z" fill="#1D234E"/>
</svg>
