<svg width="11" height="18" viewBox="0 0 11 18" fill="none" xmlns="http://www.w3.org/2000/svg">
<g clip-path="url(#clip0_138_20730)">
<path d="M5.51965 0.974609C4.75793 0.974609 4.04309 1.12109 3.37512 1.41406C2.70715 1.69531 2.12415 2.08496 1.6261 2.58301C1.12805 3.08105 0.732544 3.66992 0.439575 4.34961C0.146606 5.01758 0.00012207 5.73242 0.00012207 6.49414C0.00012207 7.52539 0.287231 8.63867 0.86145 9.83398C1.43567 11.0293 2.06848 12.1367 2.75989 13.1562C3.45129 14.1758 4.08411 15.0254 4.65833 15.7051C5.23254 16.3848 5.51965 16.7246 5.51965 16.7246C5.51965 16.7246 5.80676 16.3848 6.38098 15.7051C6.9552 15.0254 7.58801 14.1758 8.27942 13.1562C8.97083 12.1367 9.60364 11.0293 10.1779 9.83398C10.7521 8.63867 11.0392 7.52539 11.0392 6.49414C11.0392 5.73242 10.8927 5.01758 10.5997 4.34961C10.3068 3.66992 9.91125 3.08105 9.41321 2.58301C8.91516 2.08496 8.33215 1.69531 7.66418 1.41406C6.99622 1.12109 6.28137 0.974609 5.51965 0.974609ZM5.51965 8.74414C4.89856 8.74414 4.36829 8.52441 3.92883 8.08496C3.48938 7.64551 3.26965 7.11523 3.26965 6.49414C3.26965 5.87305 3.48938 5.34277 3.92883 4.90332C4.36829 4.46387 4.89856 4.24414 5.51965 4.24414C6.14075 4.24414 6.67102 4.46387 7.11047 4.90332C7.54993 5.34277 7.76965 5.87305 7.76965 6.49414C7.76965 7.11523 7.54993 7.64551 7.11047 8.08496C6.67102 8.52441 6.14075 8.74414 5.51965 8.74414Z" fill="#0666EB"/>
</g>
<defs>
<clipPath id="clip0_138_20730">
<rect width="11" height="18" fill="white" transform="matrix(1 0 0 -1 0.00012207 18)"/>
</clipPath>
</defs>
</svg>
