<svg width="19" height="19" viewBox="0 0 19 19" fill="none" xmlns="http://www.w3.org/2000/svg">
<g clip-path="url(#clip0_114_9099)">
<path d="M14.2725 4.16669C13.6193 3.51347 12.8439 2.99531 11.9905 2.64179C11.1371 2.28826 10.2224 2.10631 9.29872 2.10631C8.37499 2.10631 7.46031 2.28826 6.60691 2.64179C5.75351 2.99531 4.97811 3.51347 4.32498 4.16669C3.67176 4.81982 3.1536 5.59522 2.80008 6.44862C2.44655 7.30202 2.2646 8.2167 2.2646 9.14043C2.2646 10.0642 2.44655 10.9788 2.80008 11.8322C3.1536 12.6856 3.67176 13.461 4.32498 14.1142C4.97812 14.7675 5.75358 15.2858 6.60707 15.6394C7.46055 15.993 8.37533 16.175 9.29916 16.175C10.223 16.175 11.1378 15.993 11.9913 15.6394C12.8447 15.2858 13.6202 14.7675 14.2734 14.1142C14.9267 13.461 15.445 12.6856 15.7986 11.8321C16.1522 10.9786 16.3342 10.0638 16.3342 9.13998C16.3342 8.21615 16.1522 7.30137 15.7986 6.44789C15.445 5.5944 14.9267 4.81894 14.2734 4.1658L14.2725 4.16669ZM15.0595 14.9003C13.5318 16.428 11.4597 17.2863 9.29916 17.2863C7.13862 17.2863 5.06657 16.428 3.53883 14.9003C2.0111 13.3726 1.15283 11.3005 1.15283 9.13998C1.15283 6.97944 2.0111 4.90739 3.53883 3.37965C5.06657 1.85192 7.13862 0.993652 9.29916 0.993652C11.4597 0.993652 13.5318 1.85192 15.0595 3.37965C16.5872 4.90739 17.4455 6.97944 17.4455 9.13998C17.4455 11.3005 16.5872 13.3726 15.0595 14.9003ZM9.13446 13.9254C8.99798 13.9291 8.86225 13.904 8.73614 13.8517C8.61003 13.7994 8.49638 13.7211 8.40262 13.6218C8.20942 13.4197 8.11415 13.1624 8.11415 12.8499C8.11415 12.5374 8.20942 12.2801 8.40262 12.078C8.59671 11.875 8.83887 11.7744 9.13446 11.7744C9.42737 11.7744 9.67399 11.875 9.87164 12.078C10.0693 12.2801 10.1681 12.5374 10.1681 12.8499C10.1681 13.1624 10.0693 13.4197 9.87164 13.6218C9.77648 13.7207 9.66182 13.7988 9.53492 13.851C9.40803 13.9033 9.27166 13.9286 9.13446 13.9254ZM8.43111 10.7951C8.38335 10.4922 8.39484 10.1828 8.46494 9.88429C8.53438 9.60918 8.63588 9.35633 8.76943 9.12663C8.90208 8.89693 9.05344 8.68236 9.22349 8.48471C9.39265 8.28706 9.55468 8.09386 9.70604 7.90601C9.84858 7.73109 9.97549 7.544 10.0853 7.34689C10.1868 7.16349 10.2367 6.96584 10.2367 6.75394C10.2367 6.42274 10.1387 6.15654 9.94019 5.95444C9.74343 5.75234 9.46832 5.65084 9.12021 5.65084C8.83442 5.65084 8.57712 5.71494 8.34831 5.84404C8.10534 5.98307 7.88597 6.15977 7.69838 6.36754L6.81697 5.55469C7.11967 5.20479 7.48114 4.91722 7.89959 4.69197C8.33516 4.46285 8.82131 4.34683 9.31341 4.35454C9.6722 4.35454 10.0043 4.40262 10.3052 4.49966C10.6097 4.59582 10.8697 4.74094 11.0851 4.93325C11.3015 5.12644 11.4715 5.36594 11.5962 5.65084C11.7199 5.93574 11.7814 6.26694 11.7814 6.64354C11.7814 6.93824 11.7279 7.20177 11.6229 7.43681C11.5165 7.6732 11.3849 7.89738 11.2303 8.10544C11.0739 8.31717 10.9056 8.5199 10.7263 8.71263C10.5483 8.90583 10.3862 9.10793 10.2447 9.31894C10.1024 9.52954 9.98584 9.7564 9.89746 9.99469C9.80922 10.2517 9.78388 10.5262 9.82356 10.7951H8.43022H8.43111Z" fill="#2B2B2B"/>
</g>
<defs>
<clipPath id="clip0_114_9099">
<rect width="17.8063" height="17.8063" fill="white" transform="translate(0.373047 0.213867)"/>
</clipPath>
</defs>
</svg>
