<svg width="7" height="12" viewBox="0 0 7 12" fill="none" xmlns="http://www.w3.org/2000/svg">
<path d="M0.663365 0.821746L0.111242 1.37001C0.0767676 1.4025 0.0492993 1.44169 0.0305245 1.48518C0.0117497 1.52867 0.00206494 1.57553 0.00206495 1.6229C0.00206495 1.67027 0.0117497 1.71714 0.0305245 1.76063C0.0492993 1.80412 0.0767676 1.84331 0.111242 1.8758L4.44329 6.20785L0.111242 10.5399C0.0761557 10.5724 0.0481645 10.6118 0.0290224 10.6557C0.00988038 10.6995 -4.1799e-08 10.7469 -3.97076e-08 10.7947C-3.76162e-08 10.8426 0.00988039 10.8899 0.0290224 10.9337C0.0481645 10.9776 0.0761557 11.017 0.111242 11.0495L0.663366 11.5939C0.695852 11.6284 0.735044 11.6559 0.778534 11.6747C0.822023 11.6934 0.868892 11.7031 0.916262 11.7031C0.963631 11.7031 1.0105 11.6934 1.05399 11.6747C1.09748 11.6559 1.13667 11.6284 1.16916 11.5939L6.30429 6.45881C6.33877 6.42633 6.36624 6.38713 6.38501 6.34364C6.40378 6.30015 6.41347 6.25329 6.41347 6.20592C6.41347 6.15855 6.40378 6.11168 6.38501 6.06819C6.36624 6.0247 6.33877 5.98551 6.30429 5.95302L1.16916 0.817884C1.13672 0.784015 1.09776 0.757061 1.05463 0.738647C1.0115 0.720234 0.965089 0.71074 0.918192 0.71074C0.871294 0.71074 0.824882 0.720234 0.781751 0.738647C0.738621 0.757061 0.699663 0.784015 0.667226 0.817884L0.663365 0.821746Z" fill="#191C1F"/>
</svg>
