<svg width="29" height="30" viewBox="0 0 29 30" fill="none" xmlns="http://www.w3.org/2000/svg">
<path d="M23.2642 2.34776e-06C24.553 -0.00124582 25.7925 0.495233 26.7241 1.38585C27.6557 2.27646 28.2075 3.49242 28.2642 4.78V19C28.2654 20.2888 27.7689 21.5284 26.8783 22.46C25.9877 23.3916 24.7717 23.9433 23.4842 24H18.4242L14.2642 29.08L10.1042 24H5.26416C4.01435 23.9999 2.80992 23.5316 1.88815 22.6876C0.966392 21.8436 0.394146 20.685 0.284162 19.44L0.264163 19.22V19V5C0.262914 3.71117 0.759393 2.47164 1.65001 1.54003C2.54062 0.608425 3.75658 0.0567103 5.04416 2.34776e-06H23.2642ZM23.2642 2H5.26416C4.49874 1.99862 3.76174 2.28987 3.20403 2.81411C2.64632 3.33836 2.31009 4.05596 2.26416 4.82V19C2.26278 19.7654 2.55403 20.5024 3.07827 21.0601C3.60252 21.6178 4.32012 21.9541 5.08416 22H11.0642L14.2642 25.92L17.4642 22H23.2642C24.0296 22.0014 24.7666 21.7101 25.3243 21.1859C25.882 20.6616 26.2182 19.944 26.2642 19.18V5C26.2655 4.23458 25.9743 3.49758 25.4501 2.93987C24.9258 2.38216 24.2082 2.04593 23.4442 2H23.2642ZM20.2642 6.59L21.6742 8L12.2642 17.41L6.85416 12L8.26416 10.59L12.2642 14.59L20.2642 6.59Z" fill="#1D234E"/>
</svg>
