<svg width="24" height="25" viewBox="0 0 24 25" fill="none" xmlns="http://www.w3.org/2000/svg">
<g clip-path="url(#clip0_407_14582)">
<path d="M15.8095 8.50857C15.3419 8.47199 14.8397 8.5837 14.0706 8.87731C14.1358 8.8526 13.3371 9.164 13.1136 9.24309C12.6174 9.41609 12.2091 9.511 11.7514 9.511C11.2986 9.511 10.8814 9.42005 10.4009 9.25891C10.2477 9.20651 10.0935 9.15016 9.9017 9.07503C9.82063 9.04339 9.52406 8.92476 9.45881 8.90005C8.8182 8.64895 8.45736 8.55404 8.15782 8.56195C7.01896 8.57678 5.9404 9.23419 5.31463 10.3236C4.03736 12.542 4.74421 16.5508 6.61166 19.2516C7.60618 20.6791 8.14991 21.1892 8.36938 21.1823C8.58885 21.1724 8.74999 21.126 9.14345 20.9599L9.30854 20.8897C10.3021 20.4656 10.999 20.2788 12.0479 20.2788C13.0573 20.2788 13.7315 20.4626 14.6855 20.8739L14.8516 20.9451C15.245 21.1131 15.3874 21.1507 15.6345 21.1448C15.9885 21.1398 16.4244 20.7325 17.3923 19.3119C17.6572 18.9254 17.8915 18.5181 18.0942 18.1058C17.961 17.9961 17.8317 17.8817 17.7066 17.7628C16.4323 16.5488 15.6444 14.9117 15.6227 12.889C15.6014 11.3925 16.0933 9.93374 17.0166 8.75571C16.6291 8.61266 16.2221 8.52932 15.8095 8.50857ZM15.9628 6.53731C16.6627 6.58476 18.6676 6.7983 19.9725 8.70826C19.8657 8.76758 17.5761 10.0962 17.5999 12.8722C17.6355 16.1939 20.5063 17.2972 20.5419 17.309C20.5182 17.3921 20.0793 18.8868 19.0234 20.429C18.11 21.7696 17.1609 23.0982 15.6662 23.1219C14.1952 23.1575 13.7206 22.2559 12.0479 22.2559C10.3634 22.2559 9.84139 23.0982 8.45341 23.1575C7.00611 23.205 5.9147 21.7102 4.98938 20.3816C3.10314 17.6531 1.66771 12.6943 3.60139 9.33701C4.56231 7.66431 6.2706 6.60849 8.1331 6.58476C9.54482 6.54917 10.8853 7.53381 11.7514 7.53381C12.6055 7.53381 14.1358 6.39495 15.9628 6.53731ZM14.8358 4.73412C14.0647 5.65944 12.8072 6.38309 11.5853 6.28819C11.4192 5.03069 12.0361 3.71389 12.7479 2.89533C13.5427 1.97001 14.8714 1.28195 15.9746 1.2345C16.117 2.51571 15.6069 3.80879 14.8358 4.73412Z" fill="#191C1F"/>
</g>
<defs>
<clipPath id="clip0_407_14582">
<rect width="23.7262" height="23.7262" fill="white" transform="translate(0.258789 0.394165)"/>
</clipPath>
</defs>
</svg>
