<svg width="17" height="17" viewBox="0 0 17 17" fill="none" xmlns="http://www.w3.org/2000/svg">
<path d="M10.3664 10.9258C10.268 10.9258 10.1765 10.9081 10.0912 10.8732C9.99876 10.8341 9.91687 10.7738 9.85217 10.697L6.45694 6.84771C6.32242 6.69475 6.25891 6.50422 6.26506 6.27478C6.27052 6.04602 6.34085 5.8555 6.47538 5.70322C6.53866 5.62918 6.61764 5.57017 6.70659 5.53048C6.79554 5.49079 6.89221 5.47142 6.98958 5.47377C7.08684 5.47152 7.18338 5.49094 7.2722 5.53062C7.36102 5.57031 7.43989 5.62927 7.5031 5.70322L10.3664 8.9489L13.2481 5.68205C13.3096 5.60906 13.3871 5.55134 13.4747 5.51342C13.5623 5.4755 13.6574 5.45842 13.7527 5.46353C13.9542 5.47036 14.1222 5.55025 14.2567 5.70253C14.3912 5.8555 14.4588 6.04943 14.4588 6.28571C14.4588 6.5213 14.3912 6.71591 14.2567 6.86819L10.8799 10.697C10.8152 10.7737 10.7333 10.8341 10.6409 10.8732C10.5555 10.9081 10.464 10.9258 10.3664 10.9258Z" fill="#191C1F"/>
</svg>
