<svg width="25" height="24" viewBox="0 0 25 24" fill="none" xmlns="http://www.w3.org/2000/svg">
<path d="M3.97271 7.59351C4.79523 5.95565 6.05704 4.57881 7.6171 3.61686C9.17715 2.65492 10.974 2.14579 12.8068 2.14636C15.471 2.14636 17.7092 3.12507 19.4205 4.72165L16.5862 7.55693C15.561 6.57724 14.258 6.078 12.8068 6.078C10.2315 6.078 8.05165 7.81792 7.2756 10.154C7.07789 10.7471 6.96519 11.3798 6.96519 12.0323C6.96519 12.6848 7.07789 13.3175 7.2756 13.9106C8.05264 16.2477 10.2315 17.9866 12.8068 17.9866C14.1364 17.9866 15.2684 17.6356 16.1542 17.0425C16.6676 16.7043 17.1072 16.2656 17.4464 15.7528C17.7855 15.24 18.0172 14.6638 18.1274 14.0589H12.8068V10.235H22.1174C22.234 10.8816 22.2973 11.5558 22.2973 12.2567C22.2973 15.268 21.2197 17.8027 19.3493 19.5229C17.7142 21.0334 15.476 21.9182 12.8068 21.9182C11.1197 21.9189 9.46058 21.4877 7.9873 20.6658C6.51402 19.8438 5.27565 18.6584 4.3901 17.2225C3.50454 15.7865 3.00128 14.1478 2.92822 12.4623C2.85516 10.7768 3.21474 9.10071 3.97271 7.59351Z" fill="#191C1F"/>
</svg>
